# FamiTracker text export 0.4.2

# Song information
TITLE           "paper sheet"
AUTHOR          "jpegzilla"
COPYRIGHT       "2023"

# Song comment
COMMENT ""

# Global settings
MACHINE         0
FRAMERATE       0
EXPANSION       0
VIBRATO         1
SPLIT           32

# Macros

# DPCM samples

# Instruments
INST2A03   0     0  -1  -1  -1  -1 "2a03 moment"

# Tracks

TRACK  64   3 165 "New song"
COLUMNS : 3 3 1 1 1

ORDER 00 : 00 00 00 00 00
ORDER 01 : 01 01 01 00 01
ORDER 02 : 02 02 01 00 02
ORDER 03 : 03 03 00 01 03
ORDER 04 : 04 04 00 01 04
ORDER 05 : 05 05 00 00 05
ORDER 06 : 06 06 02 02 06
ORDER 07 : 07 07 01 01 07
ORDER 08 : 08 08 01 01 07
ORDER 09 : 07 0B 01 01 07
ORDER 0A : 09 09 01 00 08
ORDER 0B : 0A 0A 01 00 09
ORDER 0C : 0B 0C 03 03 0A
ORDER 0D : 0C 0D 03 03 0A
ORDER 0E : 0D 0E 03 01 0B
ORDER 0F : 0E 0F 03 03 0C
ORDER 10 : 0F 10 03 01 0D
ORDER 11 : 0F 10 03 01 0D
ORDER 12 : 0F 10 03 01 0D
ORDER 13 : 0F 10 03 01 0D

PATTERN 00
ROW 00 : C-5 00 A 074 V01 400 : C-3 00 8 V02 400 ... : C-2 00 . ... : D-# 00 . ... : ... .. . ...
ROW 01 : ... .. . ... ... ... : ... .. . ... ... ... : ... .. . ... : --- .. . ... : ... .. . ...
ROW 02 : --- 00 . ... ... ... : --- .. . ... ... ... : --- .. . ... : ... .. . ... : ... .. . ...
ROW 03 : ... .. . ... ... ... : ... .. . ... ... ... : ... .. . ... : ... .. . ... : ... .. . ...
ROW 04 : C-5 00 A 074 ... ... : C-4 00 . ... 074 ... : C-3 00 . ... : D-# 00 . ... : ... .. . ...
ROW 05 : ... .. . ... ... ... : ... .. . ... ... ... : ... .. . ... : --- .. . ... : ... .. . ...
ROW 06 : --- 00 . ... ... ... : --- .. . ... ... ... : --- .. . ... : ... .. . ... : ... .. . ...
ROW 07 : ... .. . ... ... ... : ... .. . ... ... ... : ... .. . ... : ... .. . ... : ... .. . ...
ROW 08 : ... .. . ... ... ... : C-3 00 . ... ... ... : C-2 00 . ... : 8-# 00 . ... : ... .. . ...
ROW 09 : ... .. . ... ... ... : ... .. . ... ... ... : ... .. . ... : --- .. . ... : ... .. . ...
ROW 0A : ... .. . ... ... ... : --- .. . ... ... ... : --- .. . ... : ... .. . ... : ... .. . ...
ROW 0B : ... .. . ... ... ... : ... .. . ... ... ... : ... .. . ... : ... .. . ... : ... .. . ...
ROW 0C : C-5 00 A 074 A04 ... : G-3 00 . ... ... ... : C-3 00 . ... : D-# 00 . ... : ... .. . ...
ROW 0D : ... .. . ... ... ... : ... .. . ... ... ... : ... .. . ... : --- .. . ... : ... .. . ...
ROW 0E : ... .. . ... ... ... : ... .. . ... ... ... : --- .. . ... : ... .. . ... : ... .. . ...
ROW 0F : ... .. . ... ... ... : ... .. . ... ... ... : ... .. . ... : ... .. . ... : ... .. . ...
ROW 10 : C-5 00 A ... A00 ... : --- .. . ... ... ... : C-2 00 . ... : D-# 00 . ... : ... .. . ...
ROW 11 : ... .. . ... ... ... : ... .. . ... ... ... : ... .. . ... : --- .. . ... : ... .. . ...
ROW 12 : ... .. . ... ... ... : ... .. . ... ... ... : --- .. . ... : ... .. . ... : ... .. . ...
ROW 13 : ... .. . ... ... ... : ... .. . ... ... ... : ... .. . ... : ... .. . ... : ... .. . ...
ROW 14 : ... .. 8 4CF ... ... : ... .. . ... ... ... : C-3 00 . ... : D-# 00 . ... : ... .. . ...
ROW 15 : ... .. . ... ... ... : ... .. . ... ... ... : ... .. . ... : --- .. . ... : ... .. . ...
ROW 16 : ... .. . ... ... ... : ... .. . ... ... ... : --- .. . ... : ... .. . ... : ... .. . ...
ROW 17 : ... .. . ... ... ... : ... .. . ... ... ... : ... .. . ... : ... .. . ... : ... .. . ...
ROW 18 : ... .. . ... ... ... : --- .. . ... ... ... : C-2 00 . ... : 8-# 00 . ... : ... .. . ...
ROW 19 : ... .. . ... ... ... : ... .. . ... ... ... : ... .. . ... : --- .. . ... : ... .. . ...
ROW 1A : ... .. . ... ... ... : ... .. . ... ... ... : --- .. . ... : ... .. . ... : ... .. . ...
ROW 1B : ... .. . ... ... ... : ... .. . ... 000 ... : ... .. . ... : ... .. . ... : ... .. . ...
ROW 1C : ... .. . ... ... ... : C-3 00 . V01 ... ... : C-3 00 . ... : D-# 00 . ... : ... .. . ...
ROW 1D : ... .. . ... ... ... : ... .. . ... ... ... : ... .. . ... : --- .. . ... : ... .. . ...
ROW 1E : ... .. . ... ... ... : ... .. . ... 12F ... : --- .. . ... : ... .. . ... : ... .. . ...
ROW 1F : ... .. . 400 ... ... : ... .. . ... ... ... : ... .. . ... : ... .. . ... : ... .. . ...
ROW 20 : G-4 00 A 074 A04 ... : G-3 00 . ... 100 ... : C-2 00 . ... : D-# 00 . ... : ... .. . ...
ROW 21 : ... .. . ... ... ... : D-4 00 . ... ... ... : ... .. . ... : --- .. . ... : ... .. . ...
ROW 22 : --- 00 . ... ... ... : A-4 00 . ... ... ... : --- .. . ... : ... .. . ... : ... .. . ...
ROW 23 : ... .. . ... ... ... : ... .. . ... ... ... : ... .. . ... : ... .. . ... : ... .. . ...
ROW 24 : G-4 00 A 074 A04 ... : G-4 00 . ... ... ... : C-3 00 . ... : D-# 00 . ... : ... .. . ...
ROW 25 : ... .. . ... ... ... : ... .. . ... ... ... : ... .. . ... : --- .. . ... : ... .. . ...
ROW 26 : --- 00 . ... ... ... : ... .. . ... 205 ... : --- .. . ... : ... .. . ... : ... .. . ...
ROW 27 : ... .. . ... ... ... : ... .. . ... ... ... : ... .. . ... : ... .. . ... : ... .. . ...
ROW 28 : F-3 00 A 074 A04 ... : E-4 00 . V02 200 ... : C-2 00 . ... : 8-# 00 . ... : ... .. . ...
ROW 29 : ... .. . ... ... ... : ... .. . ... ... ... : ... .. . ... : --- .. . ... : ... .. . ...
ROW 2A : --- 00 . ... ... ... : ... .. . ... ... ... : --- .. . ... : ... .. . ... : ... .. . ...
ROW 2B : ... .. . ... ... ... : ... .. . ... ... ... : ... .. . ... : ... .. . ... : ... .. . ...
ROW 2C : C-4 00 A ... ... ... : G-3 00 . V01 ... ... : C-3 00 . ... : D-# 00 . ... : ... .. . ...
ROW 2D : ... .. . ... ... ... : ... .. . ... ... ... : ... .. . ... : --- .. . ... : ... .. . ...
ROW 2E : ... .. . ... ... ... : C-4 00 . ... ... ... : --- .. . ... : ... .. . ... : ... .. . ...
ROW 2F : ... .. . ... ... ... : D-4 00 . V00 ... ... : ... .. . ... : ... .. . ... : ... .. . ...
ROW 30 : ... .. . ... ... ... : ... .. . ... ... ... : C-2 00 . ... : D-# 00 . ... : ... .. . ...
ROW 31 : ... .. . ... ... ... : --- 00 . ... ... ... : ... .. . ... : --- .. . ... : ... .. . ...
ROW 32 : ... .. . ... ... ... : D-4 00 . V02 ... ... : --- .. . ... : ... .. . ... : ... .. . ...
ROW 33 : ... .. . ... ... ... : ... .. . ... ... ... : ... .. . ... : ... .. . ... : ... .. . ...
ROW 34 : ... .. . ... ... ... : --- .. . ... ... ... : C-3 00 . ... : D-# 00 . ... : ... .. . ...
ROW 35 : ... .. . ... ... ... : ... .. . ... ... ... : ... .. . ... : --- .. . ... : ... .. . ...
ROW 36 : ... .. . ... ... ... : E-4 00 . ... ... ... : --- .. . ... : ... .. . ... : ... .. . ...
ROW 37 : ... .. . ... ... ... : ... .. . ... 20F ... : ... .. . ... : ... .. . ... : ... .. . ...
ROW 38 : ... .. . ... ... ... : D-4 00 . ... 200 ... : C-2 00 . ... : 8-# 00 . ... : ... .. . ...
ROW 39 : ... .. . ... ... ... : C-4 00 . ... ... ... : ... .. . ... : --- .. . ... : ... .. . ...
ROW 3A : ... .. . ... ... ... : --- .. . ... ... ... : --- .. . ... : ... .. . ... : ... .. . ...
ROW 3B : ... .. . ... ... ... : ... .. . ... ... ... : ... .. . ... : ... .. . ... : ... .. . ...
ROW 3C : ... .. . ... ... ... : C-4 00 . ... ... ... : C-3 00 . ... : D-# 00 . ... : ... .. . ...
ROW 3D : ... .. . ... ... ... : ... .. . ... ... ... : ... .. . ... : --- .. . ... : ... .. . ...
ROW 3E : ... .. . ... ... ... : --- .. . ... ... ... : --- .. . ... : ... .. . ... : ... .. . ...
ROW 3F : ... .. . ... ... ... : ... .. . ... ... ... : ... .. . ... : ... .. . ... : ... .. . ...

PATTERN 01
ROW 00 : B-3 00 A 000 V01 ... : C-3 00 8 V02 400 ... : C-2 00 . ... : D-# 00 . ... : ... .. . ...
ROW 01 : ... .. . ... A00 ... : ... .. . ... ... ... : ... .. . ... : --- .. . ... : ... .. . ...
ROW 02 : --- .. . ... ... ... : --- .. . ... ... ... : --- .. . ... : ... .. . ... : ... .. . ...
ROW 03 : ... .. . ... ... ... : ... .. . ... ... ... : ... .. . ... : ... .. . ... : ... .. . ...
ROW 04 : B-3 00 . ... ... ... : F-4 00 . ... 074 ... : G-3 00 . ... : D-# 00 . ... : ... .. . ...
ROW 05 : ... .. . ... ... ... : ... .. . ... ... ... : ... .. . ... : --- .. . ... : ... .. . ...
ROW 06 : --- .. . ... ... ... : --- .. . ... ... ... : --- .. . ... : ... .. . ... : ... .. . ...
ROW 07 : ... .. . ... ... ... : ... .. . ... ... ... : ... .. . ... : ... .. . ... : ... .. . ...
ROW 08 : C-4 00 . ... ... ... : G-4 00 . ... ... ... : C-2 00 . ... : 4-# 00 . ... : ... .. . ...
ROW 09 : ... .. . ... ... ... : ... .. . ... ... ... : ... .. . ... : --- .. . ... : ... .. . ...
ROW 0A : --- .. . ... ... ... : --- .. . ... ... ... : --- .. . ... : ... .. . ... : ... .. . ...
ROW 0B : ... .. . ... ... ... : ... .. . ... ... ... : ... .. . ... : ... .. . ... : ... .. . ...
ROW 0C : C-4 00 . ... ... ... : C-4 00 . ... ... ... : G-3 00 . ... : D-# 00 . ... : ... .. . ...
ROW 0D : ... .. . ... ... ... : ... .. . ... ... ... : ... .. . ... : --- 00 . ... : ... .. . ...
ROW 0E : --- .. . ... ... ... : ... .. . ... ... ... : --- .. . ... : D-# 00 . ... : ... .. . ...
ROW 0F : ... .. . ... ... ... : ... .. . ... ... ... : ... .. . ... : --- .. . ... : ... .. . ...
ROW 10 : B-3 00 . ... ... ... : --- .. . ... ... ... : C-2 00 . ... : F-# 00 . ... : ... .. . ...
ROW 11 : ... .. . ... ... ... : ... .. . ... ... ... : ... .. . ... : --- .. . ... : ... .. . ...
ROW 12 : --- .. . ... ... ... : ... .. . ... ... ... : --- .. . ... : B-# 00 . ... : ... .. . ...
ROW 13 : ... .. . ... ... ... : ... .. . ... ... ... : ... .. . ... : --- .. . ... : ... .. . ...
ROW 14 : A-3 00 . ... ... ... : ... .. . ... ... ... : G-3 00 . ... : 9-# 00 . ... : ... .. . ...
ROW 15 : ... .. . ... ... ... : ... .. . ... ... ... : ... .. . ... : --- .. . ... : ... .. . ...
ROW 16 : --- .. . ... ... ... : ... .. . ... ... ... : --- .. . ... : F-# 00 . ... : ... .. . ...
ROW 17 : ... .. . ... ... ... : ... .. . ... ... ... : ... .. . ... : --- .. . ... : ... .. . ...
ROW 18 : F-3 00 . ... ... ... : --- .. . ... ... ... : C-2 00 . ... : F-# 00 . ... : ... .. . ...
ROW 19 : ... .. . ... ... ... : ... .. . ... ... ... : ... .. . ... : --- .. . ... : ... .. . ...
ROW 1A : --- .. . ... ... ... : ... .. . ... ... ... : --- .. . ... : F-# 00 . ... : ... .. . ...
ROW 1B : ... .. . ... ... ... : ... .. . ... 000 ... : ... .. . ... : --- .. . ... : ... .. . ...
ROW 1C : G-3 00 . ... ... ... : C-3 00 . V01 ... ... : G-3 00 . ... : 9-# 00 . ... : ... .. . ...
ROW 1D : ... .. . ... ... ... : ... .. . ... ... ... : ... .. . ... : --- .. . ... : ... .. . ...
ROW 1E : ... .. 0 ... ... ... : ... .. . ... 12F ... : --- .. . ... : ... .. . ... : ... .. . ...
ROW 1F : ... .. . ... ... ... : ... .. . ... ... ... : ... .. . ... : ... .. . ... : ... .. . ...
ROW 20 : ... .. A 4D8 ... ... : G-3 00 . ... 100 ... : C-2 00 . ... : D-# 00 . ... : ... .. . ...
ROW 21 : ... .. . ... ... ... : D-4 00 . ... ... ... : ... .. . ... : --- .. . ... : ... .. . ...
ROW 22 : ... .. 0 ... ... ... : G-4 00 . ... ... ... : --- .. . ... : ... .. . ... : ... .. . ...
ROW 23 : ... .. . ... ... ... : B-4 00 . ... ... ... : ... .. . ... : ... .. . ... : ... .. . ...
ROW 24 : ... .. A 4DA ... ... : C-5 00 . ... 4C4 ... : G-3 00 . ... : D-# 00 . ... : ... .. . ...
ROW 25 : ... .. . ... ... ... : ... .. . ... ... ... : ... .. . ... : --- .. . ... : ... .. . ...
ROW 26 : ... .. 0 ... ... ... : ... .. . ... ... ... : --- .. . ... : ... .. . ... : ... .. . ...
ROW 27 : ... .. . ... ... ... : ... .. . ... ... ... : ... .. . ... : ... .. . ... : ... .. . ...
ROW 28 : ... .. A ... ... ... : C-3 00 . ... 100 ... : C-2 00 . ... : 4-# 00 . ... : ... .. . ...
ROW 29 : ... .. . ... ... ... : F-3 00 . ... ... ... : ... .. . ... : --- .. . ... : ... .. . ...
ROW 2A : ... .. 0 ... ... ... : B-3 00 . ... ... ... : --- .. . ... : ... .. . ... : ... .. . ...
ROW 2B : ... .. . ... ... ... : C-5 00 . ... ... ... : ... .. . ... : ... .. . ... : ... .. . ...
ROW 2C : ... .. A 4CF ... ... : ... .. . ... ... ... : G-3 00 . ... : D-# 00 . ... : ... .. . ...
ROW 2D : ... .. . ... ... ... : --- .. . ... ... ... : ... .. . ... : --- 00 . ... : ... .. . ...
ROW 2E : ... .. 0 ... ... ... : ... .. . ... ... ... : --- .. . ... : D-# 00 . ... : ... .. . ...
ROW 2F : ... .. . ... ... ... : E-3 00 . ... ... ... : ... .. . ... : --- .. . ... : ... .. . ...
ROW 30 : ... .. A ... ... ... : G-3 00 . ... ... ... : C-2 00 . ... : F-# 00 . ... : ... .. . ...
ROW 31 : ... .. . ... ... ... : B-4 00 . ... ... ... : ... .. . ... : --- .. . ... : ... .. . ...
ROW 32 : ... .. 0 ... ... ... : D-5 00 . ... ... ... : --- .. . ... : B-# 00 . ... : ... .. . ...
ROW 33 : ... .. . ... ... ... : ... .. . ... ... ... : ... .. . ... : --- .. . ... : ... .. . ...
ROW 34 : ... .. A ... ... ... : --- .. . ... ... ... : G-3 00 . ... : 9-# 00 . ... : ... .. . ...
ROW 35 : ... .. . ... ... ... : ... .. . ... ... ... : ... .. . ... : --- .. . ... : ... .. . ...
ROW 36 : ... .. . ... ... ... : C-5 00 . ... ... ... : --- .. . ... : F-# 00 . ... : ... .. . ...
ROW 37 : ... .. . ... ... ... : B-4 00 . ... ... ... : ... .. . ... : --- .. . ... : ... .. . ...
ROW 38 : --- .. . ... ... ... : A-4 00 . ... ... ... : C-2 00 . ... : F-# 00 . ... : ... .. . ...
ROW 39 : ... .. . ... ... ... : F-4 00 . ... ... ... : ... .. . ... : --- .. . ... : ... .. . ...
ROW 3A : ... .. . ... ... ... : ... .. . ... ... ... : --- .. . ... : F-# 00 . ... : ... .. . ...
ROW 3B : ... .. . ... ... ... : --- .. . ... ... ... : ... .. . ... : --- .. . ... : ... .. . ...
ROW 3C : ... .. . ... ... ... : G-4 00 . ... ... ... : G-3 00 . ... : 9-# 00 . ... : ... .. . ...
ROW 3D : ... .. . ... ... ... : ... .. . ... ... ... : ... .. . ... : --- .. . ... : ... .. . ...
ROW 3E : ... .. . ... ... ... : --- .. . ... 400 ... : --- .. . ... : ... .. . ... : ... .. . ...
ROW 3F : ... .. . ... ... ... : ... .. . ... ... ... : ... .. . ... : ... .. . ... : ... .. . ...

PATTERN 02
ROW 00 : C-4 00 9 V00 ... ... : C-5 00 8 V00 ... ... : ... .. . ... : ... .. . ... : ... .. . ...
ROW 01 : ... .. . ... ... ... : ... .. . ... ... ... : ... .. . ... : ... .. . ... : ... .. . ...
ROW 02 : ... .. . ... ... ... : --- 00 . ... ... ... : ... .. . ... : ... .. . ... : ... .. . ...
ROW 03 : ... .. . ... ... ... : ... .. . ... ... ... : ... .. . ... : ... .. . ... : ... .. . ...
ROW 04 : ... .. . 483 ... ... : C-5 00 . ... ... ... : ... .. . ... : ... .. . ... : ... .. . ...
ROW 05 : ... .. . ... ... ... : ... .. . ... ... ... : ... .. . ... : ... .. . ... : ... .. . ...
ROW 06 : ... .. . ... ... ... : --- .. . ... ... ... : ... .. . ... : ... .. . ... : ... .. . ...
ROW 07 : ... .. . ... ... ... : ... .. . ... ... ... : ... .. . ... : ... .. . ... : ... .. . ...
ROW 08 : ... .. . ... ... ... : ... .. . ... ... ... : ... .. . ... : ... .. . ... : ... .. . ...
ROW 09 : ... .. . ... ... ... : ... .. . ... ... ... : ... .. . ... : ... .. . ... : ... .. . ...
ROW 0A : ... .. . ... ... ... : ... .. . ... ... ... : ... .. . ... : ... .. . ... : ... .. . ...
ROW 0B : ... .. . ... ... ... : ... .. . ... ... ... : ... .. . ... : ... .. . ... : ... .. . ...
ROW 0C : ... .. . ... A01 ... : G-4 00 . ... ... ... : ... .. . ... : ... .. . ... : ... .. . ...
ROW 0D : ... .. . ... ... ... : --- .. . ... ... ... : ... .. . ... : ... .. . ... : ... .. . ...
ROW 0E : ... .. . ... ... ... : ... .. . ... ... ... : ... .. . ... : ... .. . ... : ... .. . ...
ROW 0F : ... .. . ... ... ... : G-4 00 . ... ... ... : ... .. . ... : ... .. . ... : ... .. . ...
ROW 10 : ... .. . ... ... ... : C-5 00 . ... ... ... : ... .. . ... : ... .. . ... : ... .. . ...
ROW 11 : ... .. . ... ... ... : ... .. . ... ... ... : ... .. . ... : ... .. . ... : ... .. . ...
ROW 12 : ... .. . ... ... ... : --- .. . ... ... ... : ... .. . ... : ... .. . ... : ... .. . ...
ROW 13 : ... .. . ... ... ... : ... .. . ... ... ... : ... .. . ... : ... .. . ... : ... .. . ...
ROW 14 : D-4 00 9 ... A00 ... : C-5 00 . ... ... ... : ... .. . ... : ... .. . ... : ... .. . ...
ROW 15 : ... .. . ... ... ... : ... .. . ... ... ... : ... .. . ... : ... .. . ... : ... .. . ...
ROW 16 : ... .. . ... ... ... : --- .. . ... ... ... : ... .. . ... : ... .. . ... : ... .. . ...
ROW 17 : ... .. . ... ... ... : ... .. . ... ... ... : ... .. . ... : ... .. . ... : ... .. . ...
ROW 18 : E-4 00 . ... ... ... : ... .. . ... ... ... : ... .. . ... : ... .. . ... : ... .. . ...
ROW 19 : ... .. . ... ... ... : ... .. . ... ... ... : ... .. . ... : ... .. . ... : ... .. . ...
ROW 1A : ... .. . ... ... ... : ... .. . ... ... ... : ... .. . ... : ... .. . ... : ... .. . ...
ROW 1B : ... .. . ... ... ... : ... .. . ... ... ... : ... .. . ... : ... .. . ... : ... .. . ...
ROW 1C : F-4 00 . ... ... ... : ... .. . ... ... ... : ... .. . ... : ... .. . ... : ... .. . ...
ROW 1D : ... .. . ... ... ... : ... .. . ... ... ... : ... .. . ... : ... .. . ... : ... .. . ...
ROW 1E : ... .. . ... ... ... : ... .. . ... ... ... : ... .. . ... : ... .. . ... : ... .. . ...
ROW 1F : ... .. . ... ... ... : ... .. . ... ... ... : ... .. . ... : ... .. . ... : ... .. . ...
ROW 20 : E-4 00 . ... ... ... : C-5 00 . V02 047 ... : ... .. . ... : ... .. . ... : ... .. . ...
ROW 21 : ... .. . ... ... ... : ... .. . ... ... ... : ... .. . ... : ... .. . ... : ... .. . ...
ROW 22 : ... .. . ... ... ... : --- 00 . ... ... ... : ... .. . ... : ... .. . ... : ... .. . ...
ROW 23 : ... .. . ... ... ... : ... .. . ... ... ... : ... .. . ... : ... .. . ... : ... .. . ...
ROW 24 : C-4 00 . 476 ... ... : C-5 00 . ... ... ... : ... .. . ... : ... .. . ... : ... .. . ...
ROW 25 : ... .. . ... ... ... : ... .. . ... ... ... : ... .. . ... : ... .. . ... : ... .. . ...
ROW 26 : ... .. . ... ... ... : --- .. . ... ... ... : ... .. . ... : ... .. . ... : ... .. . ...
ROW 27 : ... .. . ... ... ... : ... .. . ... ... ... : ... .. . ... : ... .. . ... : ... .. . ...
ROW 28 : ... .. . ... ... ... : ... .. . ... ... ... : ... .. . ... : ... .. . ... : ... .. . ...
ROW 29 : ... .. . ... ... ... : ... .. . ... ... ... : ... .. . ... : ... .. . ... : ... .. . ...
ROW 2A : ... .. . ... ... ... : ... .. . ... ... ... : ... .. . ... : ... .. . ... : ... .. . ...
ROW 2B : ... .. . ... ... ... : ... .. . ... ... ... : ... .. . ... : ... .. . ... : ... .. . ...
ROW 2C : ... .. . ... ... ... : G-4 00 . ... ... ... : ... .. . ... : ... .. . ... : ... .. . ...
ROW 2D : ... .. . ... ... ... : --- .. . ... ... ... : ... .. . ... : ... .. . ... : ... .. . ...
ROW 2E : ... .. . ... ... ... : ... .. . ... ... ... : ... .. . ... : ... .. . ... : ... .. . ...
ROW 2F : ... .. . ... ... ... : B-4 00 . ... ... ... : ... .. . ... : ... .. . ... : ... .. . ...
ROW 30 : ... .. . 4FC ... ... : C-5 00 . ... ... ... : ... .. . ... : ... .. . ... : ... .. . ...
ROW 31 : ... .. . ... ... ... : ... .. . ... ... ... : ... .. . ... : ... .. . ... : ... .. . ...
ROW 32 : ... .. . ... ... ... : --- .. . ... ... ... : ... .. . ... : ... .. . ... : ... .. . ...
ROW 33 : ... .. . ... ... ... : ... .. . ... ... ... : ... .. . ... : ... .. . ... : ... .. . ...
ROW 34 : --- .. . ... ... ... : C-5 00 . ... ... ... : ... .. . ... : ... .. . ... : ... .. . ...
ROW 35 : ... .. . ... ... ... : ... .. . ... ... ... : ... .. . ... : ... .. . ... : ... .. . ...
ROW 36 : E-4 00 . 400 ... ... : --- .. . ... ... ... : ... .. . ... : ... .. . ... : ... .. . ...
ROW 37 : G-4 00 . ... ... ... : ... .. . ... ... ... : ... .. . ... : ... .. . ... : ... .. . ...
ROW 38 : C-5 00 . ... ... ... : ... .. . ... ... ... : ... .. . ... : ... .. . ... : ... .. . ...
ROW 39 : --- .. . ... ... ... : ... .. . ... ... ... : ... .. . ... : ... .. . ... : ... .. . ...
ROW 3A : F-4 00 . ... ... ... : ... .. . ... ... ... : ... .. . ... : ... .. . ... : ... .. . ...
ROW 3B : A-4 00 . ... ... ... : ... .. . ... ... ... : ... .. . ... : ... .. . ... : ... .. . ...
ROW 3C : E-5 00 . ... ... ... : ... .. . ... ... ... : ... .. . ... : ... .. . ... : ... .. . ...
ROW 3D : ... .. . ... ... ... : ... .. . ... ... ... : ... .. . ... : ... .. . ... : ... .. . ...
ROW 3E : --- .. . ... ... ... : ... .. . ... ... ... : ... .. . ... : ... .. . ... : ... .. . ...
ROW 3F : ... .. . ... ... ... : ... .. . ... ... ... : ... .. . ... : ... .. . ... : ... .. . ...

PATTERN 03
ROW 00 : ... .. . ... ... ... : A-4 00 8 V01 000 ... : C-2 00 . ... : B-# 00 . ... : ... .. . ...
ROW 01 : ... .. . ... ... ... : ... .. . ... ... ... : ... .. . ... : --- .. . ... : ... .. . ...
ROW 02 : A-4 00 6 V01 ... ... : ... .. . ... ... ... : --- .. . ... : ... .. . ... : ... .. . ...
ROW 03 : ... .. . ... ... ... : --- .. . ... ... ... : ... .. . ... : ... .. . ... : ... .. . ...
ROW 04 : ... .. . ... ... ... : A-4 00 . ... ... ... : G-2 00 . ... : B-# 00 . ... : ... .. . ...
ROW 05 : --- .. . ... ... ... : ... .. . ... P83 ... : ... .. . ... : --- .. . ... : ... .. . ...
ROW 06 : A-4 00 . ... ... ... : --- .. . ... ... ... : --- .. . ... : ... .. . ... : ... .. . ...
ROW 07 : ... .. . ... ... ... : ... .. . ... ... ... : ... .. . ... : ... .. . ... : ... .. . ...
ROW 08 : --- .. . ... ... ... : G-4 00 . V02 P80 ... : C-2 00 . ... : 8-# 00 . ... : ... .. . ...
ROW 09 : ... .. . ... ... ... : ... .. . ... ... ... : ... .. . ... : --- .. . ... : ... .. . ...
ROW 0A : G-4 00 . V02 ... ... : --- .. . ... ... ... : --- .. . ... : ... .. . ... : ... .. . ...
ROW 0B : ... .. . ... ... ... : ... .. . ... ... ... : ... .. . ... : ... .. . ... : ... .. . ...
ROW 0C : --- .. . ... ... ... : G-4 00 . V00 ... ... : G-2 00 . ... : B-# 00 . ... : ... .. . ...
ROW 0D : ... .. . ... ... ... : ... .. . ... ... ... : ... .. . ... : --- .. . ... : ... .. . ...
ROW 0E : G-4 00 . V00 ... ... : --- .. . ... ... ... : --- .. . ... : ... .. . ... : ... .. . ...
ROW 0F : ... .. . ... ... ... : F-4 00 . ... ... ... : ... .. . ... : ... .. . ... : ... .. . ...
ROW 10 : --- .. . ... ... ... : A#4 00 . V00 ... ... : C-2 00 . ... : B-# 00 . ... : ... .. . ...
ROW 11 : F-4 00 . ... ... ... : ... .. . ... ... ... : ... .. . ... : --- .. . ... : ... .. . ...
ROW 12 : A#4 00 . V00 ... ... : ... .. . ... P82 ... : --- .. . ... : ... .. . ... : ... .. . ...
ROW 13 : ... .. . ... ... ... : ... .. . ... ... ... : ... .. . ... : ... .. . ... : ... .. . ...
ROW 14 : ... .. . ... ... ... : A-4 00 . V02 P80 ... : G-2 00 . ... : B-# 00 . ... : ... .. . ...
ROW 15 : ... .. . ... ... ... : ... .. . ... ... ... : ... .. . ... : --- .. . ... : ... .. . ...
ROW 16 : A-4 00 . V02 ... ... : ... .. . ... P7D ... : --- .. . ... : ... .. . ... : ... .. . ...
ROW 17 : ... .. . ... ... ... : ... .. . ... ... ... : ... .. . ... : ... .. . ... : ... .. . ...
ROW 18 : ... .. . ... ... ... : --- .. . ... ... ... : C-2 00 . ... : 8-# 00 . ... : ... .. . ...
ROW 19 : ... .. . ... ... ... : ... .. . ... ... ... : ... .. . ... : --- .. . ... : ... .. . ...
ROW 1A : --- .. . ... ... ... : ... .. . ... ... ... : --- .. . ... : ... .. . ... : ... .. . ...
ROW 1B : ... .. . ... ... ... : ... .. . ... ... ... : ... .. . ... : ... .. . ... : ... .. . ...
ROW 1C : ... .. . ... ... ... : F-4 00 . V00 ... ... : G-2 00 . ... : B-# 00 . ... : ... .. . ...
ROW 1D : ... .. . ... ... ... : ... .. . ... ... ... : ... .. . ... : --- .. . ... : ... .. . ...
ROW 1E : F-4 00 . V00 ... ... : ... .. . ... P7D ... : --- .. . ... : ... .. . ... : ... .. . ...
ROW 1F : ... .. . ... ... ... : ... .. . ... ... ... : ... .. . ... : ... .. . ... : ... .. . ...
ROW 20 : ... .. . ... ... ... : ... .. . 473 ... ... : C-2 00 . ... : B-# 00 . ... : ... .. . ...
ROW 21 : ... .. . ... ... ... : ... .. . ... ... ... : ... .. . ... : --- .. . ... : ... .. . ...
ROW 22 : ... .. . 473 ... ... : ... .. . ... ... ... : --- .. . ... : ... .. . ... : ... .. . ...
ROW 23 : ... .. . ... ... ... : ... .. . ... ... ... : ... .. . ... : ... .. . ... : ... .. . ...
ROW 24 : ... .. . ... ... ... : ... .. . ... P80 ... : G-2 00 . ... : B-# 00 . ... : ... .. . ...
ROW 25 : ... .. . ... ... ... : ... .. . ... ... ... : ... .. . ... : --- .. . ... : ... .. . ...
ROW 26 : ... .. . ... ... ... : ... .. . ... ... ... : --- .. . ... : ... .. . ... : ... .. . ...
ROW 27 : ... .. . ... ... ... : ... .. . ... ... ... : ... .. . ... : ... .. . ... : ... .. . ...
ROW 28 : ... .. . ... ... ... : ... .. . ... ... ... : C-2 00 . ... : 8-# 00 . ... : ... .. . ...
ROW 29 : ... .. . ... ... ... : ... .. . ... ... ... : ... .. . ... : --- .. . ... : ... .. . ...
ROW 2A : ... .. . ... ... ... : ... .. . ... ... ... : --- .. . ... : ... .. . ... : ... .. . ...
ROW 2B : ... .. . ... ... ... : ... .. . ... ... ... : ... .. . ... : ... .. . ... : ... .. . ...
ROW 2C : ... .. . ... ... ... : ... .. . 476 ... ... : G-2 00 . ... : B-# 00 . ... : ... .. . ...
ROW 2D : ... .. . ... ... ... : ... .. . ... ... ... : ... .. . ... : --- .. . ... : ... .. . ...
ROW 2E : ... .. . 476 ... ... : ... .. . ... ... ... : --- .. . ... : ... .. . ... : ... .. . ...
ROW 2F : ... .. . ... ... ... : ... .. . ... ... ... : ... .. . ... : ... .. . ... : ... .. . ...
ROW 30 : ... .. . ... ... ... : --- .. . 400 ... ... : C-2 00 . ... : B-# 00 . ... : ... .. . ...
ROW 31 : ... .. . ... ... ... : ... .. . ... ... ... : ... .. . ... : --- .. . ... : ... .. . ...
ROW 32 : --- .. . 400 ... ... : A-4 00 . ... ... ... : --- .. . ... : ... .. . ... : ... .. . ...
ROW 33 : ... .. . ... ... ... : B-4 00 . ... ... ... : ... .. . ... : ... .. . ... : ... .. . ...
ROW 34 : ... .. . ... ... ... : C-5 00 . ... ... ... : G-2 00 . ... : 8-# 00 . ... : ... .. . ...
ROW 35 : ... .. . ... ... ... : G-3 00 . ... ... ... : ... .. . ... : --- .. . ... : ... .. . ...
ROW 36 : ... .. . ... ... ... : D-5 00 . ... ... ... : --- .. . ... : ... .. . ... : ... .. . ...
ROW 37 : ... .. . ... ... ... : F-4 00 . ... ... ... : ... .. . ... : ... .. . ... : ... .. . ...
ROW 38 : ... .. . ... ... ... : C-4 00 . ... ... ... : C-2 00 . ... : B-# 00 . ... : ... .. . ...
ROW 39 : ... .. . ... ... ... : F-3 00 . ... ... ... : ... .. . ... : --- .. . ... : ... .. . ...
ROW 3A : ... .. . ... ... ... : C-4 00 . ... ... ... : --- .. . ... : ... .. . ... : ... .. . ...
ROW 3B : ... .. . ... ... ... : ... .. . ... ... ... : ... .. . ... : ... .. . ... : ... .. . ...
ROW 3C : ... .. . ... ... ... : --- .. . ... ... ... : G-2 00 . ... : 8-# 00 . ... : ... .. . ...
ROW 3D : ... .. . ... ... ... : ... .. . ... ... ... : ... .. . ... : --- .. . ... : ... .. . ...
ROW 3E : ... .. . ... ... ... : ... .. . ... ... ... : --- .. . ... : ... .. . ... : ... .. . ...
ROW 3F : ... .. . ... ... ... : ... .. . ... ... ... : ... .. . ... : ... .. . ... : ... .. . ...

PATTERN 04
ROW 00 : G-4 00 6 V01 473 ... : A-4 00 7 V02 ... ... : ... .. . ... : ... .. . ... : ... .. . ...
ROW 01 : ... .. . ... ... ... : ... .. . ... ... ... : ... .. . ... : ... .. . ... : ... .. . ...
ROW 02 : --- .. . ... ... ... : ... .. . ... ... ... : ... .. . ... : ... .. . ... : ... .. . ...
ROW 03 : ... .. . ... ... ... : ... .. . ... ... ... : ... .. . ... : ... .. . ... : ... .. . ...
ROW 04 : ... .. . ... ... ... : G-4 00 . ... ... ... : ... .. . ... : ... .. . ... : ... .. . ...
ROW 05 : ... .. . ... ... ... : ... .. . ... ... ... : ... .. . ... : ... .. . ... : ... .. . ...
ROW 06 : ... .. . ... ... ... : --- .. . ... ... ... : ... .. . ... : ... .. . ... : ... .. . ...
ROW 07 : ... .. . ... ... ... : ... .. . ... ... ... : ... .. . ... : ... .. . ... : ... .. . ...
ROW 08 : A-4 00 . V01 473 ... : G-4 00 . ... ... ... : ... .. . ... : ... .. . ... : ... .. . ...
ROW 09 : ... .. . ... ... ... : ... .. . ... ... ... : ... .. . ... : ... .. . ... : ... .. . ...
ROW 0A : --- .. . ... ... ... : ... .. . ... ... ... : ... .. . ... : ... .. . ... : ... .. . ...
ROW 0B : ... .. . ... ... ... : ... .. . ... ... ... : ... .. . ... : ... .. . ... : ... .. . ...
ROW 0C : ... .. . ... ... ... : --- .. . ... ... ... : ... .. . ... : ... .. . ... : ... .. . ...
ROW 0D : ... .. . ... ... ... : ... .. . ... ... ... : ... .. . ... : ... .. . ... : ... .. . ...
ROW 0E : ... .. . ... ... ... : ... .. . ... ... ... : ... .. . ... : ... .. . ... : ... .. . ...
ROW 0F : ... .. . ... ... ... : ... .. . ... ... ... : ... .. . ... : ... .. . ... : ... .. . ...
ROW 10 : C-4 00 . V01 473 ... : ... .. . ... ... ... : ... .. . ... : ... .. . ... : ... .. . ...
ROW 11 : ... .. . ... ... ... : ... .. . ... ... ... : ... .. . ... : ... .. . ... : ... .. . ...
ROW 12 : --- .. . ... ... ... : ... .. . ... ... ... : ... .. . ... : ... .. . ... : ... .. . ...
ROW 13 : ... .. . ... ... ... : ... .. . ... ... ... : ... .. . ... : ... .. . ... : ... .. . ...
ROW 14 : ... .. . ... ... ... : A-4 00 . ... ... ... : ... .. . ... : ... .. . ... : ... .. . ...
ROW 15 : ... .. . ... ... ... : ... .. . ... ... ... : ... .. . ... : ... .. . ... : ... .. . ...
ROW 16 : ... .. . ... ... ... : ... .. . ... ... ... : ... .. . ... : ... .. . ... : ... .. . ...
ROW 17 : ... .. . ... ... ... : ... .. . ... ... ... : ... .. . ... : ... .. . ... : ... .. . ...
ROW 18 : A-4 00 . V01 473 ... : G-4 00 . ... ... ... : ... .. . ... : ... .. . ... : ... .. . ...
ROW 19 : ... .. . ... ... ... : ... .. . ... ... ... : ... .. . ... : ... .. . ... : ... .. . ...
ROW 1A : --- .. . ... ... ... : --- .. . ... ... ... : ... .. . ... : ... .. . ... : ... .. . ...
ROW 1B : ... .. . ... ... ... : ... .. . ... ... ... : ... .. . ... : ... .. . ... : ... .. . ...
ROW 1C : ... .. . ... ... ... : G-4 00 . ... ... ... : ... .. . ... : ... .. . ... : ... .. . ...
ROW 1D : ... .. . ... ... ... : ... .. . ... ... ... : ... .. . ... : ... .. . ... : ... .. . ...
ROW 1E : ... .. . ... ... ... : ... .. . ... ... ... : ... .. . ... : ... .. . ... : ... .. . ...
ROW 1F : ... .. . ... ... ... : ... .. . ... ... ... : ... .. . ... : ... .. . ... : ... .. . ...
ROW 20 : G-4 00 . V01 473 ... : --- .. . ... ... ... : ... .. . ... : ... .. . ... : ... .. . ...
ROW 21 : ... .. . ... ... ... : ... .. . ... ... ... : ... .. . ... : ... .. . ... : ... .. . ...
ROW 22 : --- .. . ... ... ... : ... .. . ... ... ... : ... .. . ... : ... .. . ... : ... .. . ...
ROW 23 : ... .. . ... ... ... : ... .. . ... ... ... : ... .. . ... : ... .. . ... : ... .. . ...
ROW 24 : ... .. . ... ... ... : F-4 00 . ... ... ... : ... .. . ... : ... .. . ... : ... .. . ...
ROW 25 : ... .. . ... ... ... : ... .. . ... ... ... : ... .. . ... : ... .. . ... : ... .. . ...
ROW 26 : ... .. . ... ... ... : ... .. . ... ... ... : ... .. . ... : ... .. . ... : ... .. . ...
ROW 27 : ... .. . ... ... ... : ... .. . ... ... ... : ... .. . ... : ... .. . ... : ... .. . ...
ROW 28 : A-4 00 . V01 473 ... : A-4 00 . ... ... ... : ... .. . ... : ... .. . ... : ... .. . ...
ROW 29 : ... .. . ... ... ... : ... .. . ... ... ... : ... .. . ... : ... .. . ... : ... .. . ...
ROW 2A : --- .. . ... ... ... : ... .. . ... ... ... : ... .. . ... : ... .. . ... : ... .. . ...
ROW 2B : ... .. . ... ... ... : ... .. . ... ... ... : ... .. . ... : ... .. . ... : ... .. . ...
ROW 2C : ... .. . ... ... ... : G-4 00 . ... ... ... : ... .. . ... : ... .. . ... : ... .. . ...
ROW 2D : ... .. . ... ... ... : ... .. . ... ... ... : ... .. . ... : ... .. . ... : ... .. . ...
ROW 2E : ... .. . ... ... ... : --- .. . ... ... ... : ... .. . ... : ... .. . ... : ... .. . ...
ROW 2F : ... .. . ... ... ... : F-4 00 . ... ... ... : ... .. . ... : ... .. . ... : ... .. . ...
ROW 30 : F-4 00 6 V01 473 ... : G-4 00 . ... ... ... : ... .. . ... : ... .. . ... : ... .. . ...
ROW 31 : ... .. . ... ... ... : ... .. . ... ... ... : ... .. . ... : ... .. . ... : ... .. . ...
ROW 32 : --- .. . ... ... ... : ... .. . ... ... ... : ... .. . ... : ... .. . ... : ... .. . ...
ROW 33 : ... .. . ... ... ... : ... .. . ... ... ... : ... .. . ... : ... .. . ... : ... .. . ...
ROW 34 : ... .. . ... ... ... : F-4 00 . ... ... ... : ... .. . ... : ... .. . ... : ... .. . ...
ROW 35 : ... .. . ... ... ... : ... .. . ... ... ... : ... .. . ... : ... .. . ... : ... .. . ...
ROW 36 : ... .. . ... ... ... : ... .. . ... ... ... : ... .. . ... : ... .. . ... : ... .. . ...
ROW 37 : ... .. . ... ... ... : C-4 00 . ... ... ... : ... .. . ... : ... .. . ... : ... .. . ...
ROW 38 : A-4 00 0 V01 473 ... : F-4 00 . ... ... ... : ... .. . ... : ... .. . ... : ... .. . ...
ROW 39 : ... .. . ... ... ... : G-4 00 . ... ... ... : ... .. . ... : ... .. . ... : ... .. . ...
ROW 3A : --- .. . ... ... ... : B-4 00 . ... ... ... : ... .. . ... : ... .. . ... : ... .. . ...
ROW 3B : ... .. . ... ... ... : D-5 00 . ... ... ... : ... .. . ... : ... .. . ... : ... .. . ...
ROW 3C : ... .. . ... ... ... : C-4 00 . ... ... ... : ... .. . ... : ... .. . ... : ... .. . ...
ROW 3D : ... .. . ... ... ... : ... .. . ... ... ... : ... .. . ... : ... .. . ... : ... .. . ...
ROW 3E : ... .. . ... ... ... : --- .. . ... ... ... : ... .. . ... : ... .. . ... : ... .. . ...
ROW 3F : ... .. . ... ... ... : ... .. . ... ... ... : ... .. . ... : ... .. . ... : ... .. . ...

PATTERN 05
ROW 00 : C-5 00 6 044 400 ... : C-4 00 9 V01 ... ... : ... .. . ... : ... .. . ... : ... .. . ...
ROW 01 : ... .. . ... ... ... : ... .. . ... ... ... : ... .. . ... : ... .. . ... : ... .. . ...
ROW 02 : --- .. . ... ... ... : ... .. . ... ... ... : ... .. . ... : ... .. . ... : ... .. . ...
ROW 03 : ... .. . ... ... ... : ... .. . ... ... ... : ... .. . ... : ... .. . ... : ... .. . ...
ROW 04 : C-5 00 . 044 ... ... : ... .. . ... ... ... : ... .. . ... : ... .. . ... : ... .. . ...
ROW 05 : ... .. . ... ... ... : ... .. . ... ... ... : ... .. . ... : ... .. . ... : ... .. . ...
ROW 06 : --- .. . ... ... ... : --- .. . ... ... ... : ... .. . ... : ... .. . ... : ... .. . ...
ROW 07 : ... .. . ... ... ... : ... .. . ... ... ... : ... .. . ... : ... .. . ... : ... .. . ...
ROW 08 : C-5 00 . 044 ... ... : C-4 00 . ... ... ... : ... .. . ... : ... .. . ... : ... .. . ...
ROW 09 : ... .. . ... ... ... : ... .. . ... ... ... : ... .. . ... : ... .. . ... : ... .. . ...
ROW 0A : --- .. . ... ... ... : ... .. . ... ... ... : ... .. . ... : ... .. . ... : ... .. . ...
ROW 0B : ... .. . ... ... ... : F-4 00 . ... ... ... : ... .. . ... : ... .. . ... : ... .. . ...
ROW 0C : C-5 00 . 044 ... ... : G-4 00 . ... ... ... : ... .. . ... : ... .. . ... : ... .. . ...
ROW 0D : ... .. . ... ... ... : ... .. . ... ... ... : ... .. . ... : ... .. . ... : ... .. . ...
ROW 0E : --- .. . ... ... ... : ... .. . ... ... ... : ... .. . ... : ... .. . ... : ... .. . ...
ROW 0F : ... .. . ... ... ... : ... .. . ... ... ... : ... .. . ... : ... .. . ... : ... .. . ...
ROW 10 : C-5 00 . 044 ... ... : ... .. . ... ... ... : ... .. . ... : ... .. . ... : ... .. . ...
ROW 11 : ... .. . ... ... ... : ... .. . ... ... ... : ... .. . ... : ... .. . ... : ... .. . ...
ROW 12 : --- .. . ... ... ... : ... .. . ... 204 ... : ... .. . ... : ... .. . ... : ... .. . ...
ROW 13 : ... .. . ... ... ... : ... .. . ... ... ... : ... .. . ... : ... .. . ... : ... .. . ...
ROW 14 : C-5 00 . 044 ... ... : E-4 00 . ... 200 ... : ... .. . ... : ... .. . ... : ... .. . ...
ROW 15 : ... .. . ... ... ... : ... .. . ... ... ... : ... .. . ... : ... .. . ... : ... .. . ...
ROW 16 : --- .. . ... ... ... : ... .. . ... ... ... : ... .. . ... : ... .. . ... : ... .. . ...
ROW 17 : ... .. . ... ... ... : ... .. . ... ... ... : ... .. . ... : ... .. . ... : ... .. . ...
ROW 18 : C-5 00 . 044 ... ... : ... .. . ... ... ... : ... .. . ... : ... .. . ... : ... .. . ...
ROW 19 : ... .. . ... ... ... : ... .. . ... ... ... : ... .. . ... : ... .. . ... : ... .. . ...
ROW 1A : --- .. . ... ... ... : ... .. . ... 207 ... : ... .. . ... : ... .. . ... : ... .. . ...
ROW 1B : ... .. . ... ... ... : ... .. . ... ... ... : ... .. . ... : ... .. . ... : ... .. . ...
ROW 1C : C-5 00 . 044 ... ... : D-4 00 . ... 200 ... : ... .. . ... : ... .. . ... : ... .. . ...
ROW 1D : ... .. . ... ... ... : ... .. . ... ... ... : ... .. . ... : ... .. . ... : ... .. . ...
ROW 1E : --- .. . ... ... ... : ... .. . ... ... ... : ... .. . ... : ... .. . ... : ... .. . ...
ROW 1F : ... .. . ... ... ... : ... .. . ... ... ... : ... .. . ... : ... .. . ... : ... .. . ...
ROW 20 : C-5 00 . ... ... ... : ... .. . ... ... ... : ... .. . ... : ... .. . ... : ... .. . ...
ROW 21 : D-5 00 . ... ... ... : ... .. . ... ... ... : ... .. . ... : ... .. . ... : ... .. . ...
ROW 22 : C-5 00 . ... ... ... : ... .. . ... ... ... : ... .. . ... : ... .. . ... : ... .. . ...
ROW 23 : D-5 00 . ... ... ... : ... .. . ... ... ... : ... .. . ... : ... .. . ... : ... .. . ...
ROW 24 : ... .. . ... ... ... : C-4 00 . ... ... ... : ... .. . ... : ... .. . ... : ... .. . ...
ROW 25 : --- 00 . ... ... ... : ... .. . ... ... ... : ... .. . ... : ... .. . ... : ... .. . ...
ROW 26 : ... .. . ... ... ... : ... .. . ... ... ... : ... .. . ... : ... .. . ... : ... .. . ...
ROW 27 : C-5 00 . ... ... ... : E-4 00 . ... ... ... : ... .. . ... : ... .. . ... : ... .. . ...
ROW 28 : D-5 00 . ... ... ... : G-4 00 . ... ... ... : ... .. . ... : ... .. . ... : ... .. . ...
ROW 29 : E-5 00 . ... ... ... : ... .. . ... ... ... : ... .. . ... : ... .. . ... : ... .. . ...
ROW 2A : D-5 00 . ... ... ... : ... .. . ... ... ... : ... .. . ... : ... .. . ... : ... .. . ...
ROW 2B : C-5 00 . ... ... ... : ... .. . ... ... ... : ... .. . ... : ... .. . ... : ... .. . ...
ROW 2C : D-5 00 . ... ... ... : E-4 00 . ... ... ... : ... .. . ... : ... .. . ... : ... .. . ...
ROW 2D : ... .. . ... ... ... : ... .. . ... ... ... : ... .. . ... : ... .. . ... : ... .. . ...
ROW 2E : --- .. . ... ... ... : ... .. . ... ... ... : ... .. . ... : ... .. . ... : ... .. . ...
ROW 2F : ... .. . ... ... ... : ... .. . ... ... ... : ... .. . ... : ... .. . ... : ... .. . ...
ROW 30 : C-5 00 . ... ... ... : ... .. . 207 ... ... : ... .. . ... : ... .. . ... : ... .. . ...
ROW 31 : D-5 00 . ... ... ... : ... .. . ... ... ... : ... .. . ... : ... .. . ... : ... .. . ...
ROW 32 : C-5 00 . ... ... ... : ... .. . ... ... ... : ... .. . ... : ... .. . ... : ... .. . ...
ROW 33 : D-5 00 . ... ... ... : ... .. . ... ... ... : ... .. . ... : ... .. . ... : ... .. . ...
ROW 34 : C-5 00 . ... ... ... : ... .. . ... ... ... : ... .. . ... : ... .. . ... : ... .. . ...
ROW 35 : D-5 00 . ... ... ... : ... .. . ... ... ... : ... .. . ... : ... .. . ... : ... .. . ...
ROW 36 : C-5 00 . ... ... ... : ... .. . ... ... ... : ... .. . ... : ... .. . ... : ... .. . ...
ROW 37 : G-4 00 . ... ... ... : ... .. . ... ... ... : ... .. . ... : ... .. . ... : ... .. . ...
ROW 38 : F-4 00 . ... ... ... : --- 00 . 200 ... ... : ... .. . ... : ... .. . ... : ... .. . ...
ROW 39 : E-4 00 . ... ... ... : ... .. . ... ... ... : ... .. . ... : ... .. . ... : ... .. . ...
ROW 3A : D-4 00 . ... ... ... : ... .. . ... ... ... : ... .. . ... : ... .. . ... : ... .. . ...
ROW 3B : C-4 00 . ... ... ... : ... .. . ... ... ... : ... .. . ... : ... .. . ... : ... .. . ...
ROW 3C : B-3 00 . ... ... ... : ... .. . ... ... ... : ... .. . ... : ... .. . ... : ... .. . ...
ROW 3D : A-3 00 . ... ... ... : ... .. . ... ... ... : ... .. . ... : ... .. . ... : ... .. . ...
ROW 3E : --- .. . 000 ... ... : ... .. . ... ... ... : ... .. . ... : ... .. . ... : ... .. . ...
ROW 3F : ... .. . ... ... ... : ... .. . ... ... ... : ... .. . ... : ... .. . ... : ... .. . ...

PATTERN 06
ROW 00 : C-4 00 . V01 ... P79 : C-4 00 . V00 ... ... : ... .. . ... : ... .. . ... : ... .. . ...
ROW 01 : ... .. . ... ... ... : ... .. . ... ... ... : ... .. . ... : ... .. . ... : ... .. . ...
ROW 02 : --- .. . ... ... ... : --- .. . ... ... ... : ... .. . ... : ... .. . ... : ... .. . ...
ROW 03 : ... .. . ... ... ... : ... .. . ... ... ... : ... .. . ... : ... .. . ... : ... .. . ...
ROW 04 : C-4 00 . ... ... ... : C-4 00 . ... ... ... : ... .. . ... : ... .. . ... : ... .. . ...
ROW 05 : ... .. . ... ... ... : ... .. . ... ... ... : ... .. . ... : ... .. . ... : ... .. . ...
ROW 06 : --- .. . ... ... ... : --- .. . ... ... ... : ... .. . ... : ... .. . ... : ... .. . ...
ROW 07 : ... .. . ... ... ... : ... .. . ... ... ... : ... .. . ... : ... .. . ... : ... .. . ...
ROW 08 : C-4 00 . ... ... ... : C-4 00 . ... ... ... : ... .. . ... : ... .. . ... : ... .. . ...
ROW 09 : ... .. . ... ... ... : ... .. . ... ... ... : ... .. . ... : ... .. . ... : ... .. . ...
ROW 0A : --- .. . ... ... ... : --- .. . ... ... ... : ... .. . ... : ... .. . ... : ... .. . ...
ROW 0B : ... .. . ... ... ... : ... .. . ... ... ... : ... .. . ... : ... .. . ... : ... .. . ...
ROW 0C : C-4 00 . ... ... ... : C-4 00 . ... ... ... : ... .. . ... : ... .. . ... : ... .. . ...
ROW 0D : ... .. . ... ... ... : ... .. . ... ... ... : ... .. . ... : ... .. . ... : ... .. . ...
ROW 0E : ... .. . ... ... ... : ... .. . ... ... ... : ... .. . ... : ... .. . ... : ... .. . ...
ROW 0F : ... .. . ... ... ... : ... .. . ... ... ... : ... .. . ... : ... .. . ... : ... .. . ...
ROW 10 : ... .. . ... ... ... : ... .. . ... ... ... : ... .. . ... : ... .. . ... : ... .. . ...
ROW 11 : ... .. . ... ... ... : ... .. . ... ... ... : ... .. . ... : ... .. . ... : ... .. . ...
ROW 12 : ... .. . ... ... ... : ... .. . ... ... ... : ... .. . ... : ... .. . ... : ... .. . ...
ROW 13 : ... .. . ... ... ... : ... .. . ... ... ... : ... .. . ... : ... .. . ... : ... .. . ...
ROW 14 : ... .. . ... ... ... : ... .. . ... ... ... : ... .. . ... : ... .. . ... : ... .. . ...
ROW 15 : ... .. . ... ... ... : ... .. . ... ... ... : ... .. . ... : ... .. . ... : ... .. . ...
ROW 16 : ... .. . ... ... ... : ... .. . ... ... ... : ... .. . ... : ... .. . ... : ... .. . ...
ROW 17 : ... .. . ... ... ... : ... .. . ... ... ... : ... .. . ... : ... .. . ... : ... .. . ...
ROW 18 : G#3 00 . ... ... ... : G#3 00 . P82 ... ... : ... .. . ... : ... .. . ... : ... .. . ...
ROW 19 : ... .. . ... ... ... : ... .. . ... ... ... : ... .. . ... : ... .. . ... : ... .. . ...
ROW 1A : ... .. . ... ... ... : ... .. . ... ... ... : ... .. . ... : ... .. . ... : ... .. . ...
ROW 1B : ... .. . ... ... ... : ... .. . ... ... ... : ... .. . ... : ... .. . ... : ... .. . ...
ROW 1C : ... .. . ... ... ... : ... .. . ... ... ... : ... .. . ... : ... .. . ... : ... .. . ...
ROW 1D : ... .. . ... ... ... : ... .. . ... ... ... : ... .. . ... : ... .. . ... : ... .. . ...
ROW 1E : ... .. . ... ... ... : ... .. . ... ... ... : ... .. . ... : ... .. . ... : ... .. . ...
ROW 1F : ... .. . ... ... ... : ... .. . ... ... ... : ... .. . ... : ... .. . ... : ... .. . ...
ROW 20 : ... .. . ... ... ... : ... .. . ... ... ... : ... .. . ... : ... .. . ... : ... .. . ...
ROW 21 : ... .. . ... ... ... : ... .. . ... ... ... : ... .. . ... : ... .. . ... : ... .. . ...
ROW 22 : ... .. . ... ... ... : ... .. . ... ... ... : ... .. . ... : ... .. . ... : ... .. . ...
ROW 23 : ... .. . ... ... ... : ... .. . ... ... ... : ... .. . ... : ... .. . ... : ... .. . ...
ROW 24 : ... .. . ... ... ... : ... .. . ... ... ... : ... .. . ... : ... .. . ... : ... .. . ...
ROW 25 : ... .. . ... ... ... : ... .. . ... ... ... : ... .. . ... : ... .. . ... : ... .. . ...
ROW 26 : ... .. . ... ... ... : ... .. . ... ... ... : ... .. . ... : ... .. . ... : ... .. . ...
ROW 27 : ... .. . ... ... ... : ... .. . ... ... ... : ... .. . ... : ... .. . ... : ... .. . ...
ROW 28 : A#3 00 . ... ... ... : A#3 00 . P81 ... ... : ... .. . ... : ... .. . ... : ... .. . ...
ROW 29 : ... .. . ... ... ... : ... .. . ... ... ... : ... .. . ... : ... .. . ... : ... .. . ...
ROW 2A : ... .. . ... ... ... : ... .. . ... ... ... : ... .. . ... : ... .. . ... : ... .. . ...
ROW 2B : ... .. . ... ... ... : ... .. . ... ... ... : ... .. . ... : ... .. . ... : ... .. . ...
ROW 2C : ... .. . ... ... ... : ... .. . ... ... ... : ... .. . ... : ... .. . ... : ... .. . ...
ROW 2D : ... .. . ... ... ... : ... .. . ... ... ... : ... .. . ... : ... .. . ... : ... .. . ...
ROW 2E : ... .. . ... ... ... : ... .. . ... ... ... : ... .. . ... : ... .. . ... : ... .. . ...
ROW 2F : ... .. . ... ... ... : ... .. . ... ... ... : ... .. . ... : ... .. . ... : ... .. . ...
ROW 30 : ... .. . ... ... ... : ... .. . ... ... ... : ... .. . ... : ... .. . ... : ... .. . ...
ROW 31 : ... .. . ... ... ... : ... .. . ... ... ... : ... .. . ... : ... .. . ... : ... .. . ...
ROW 32 : ... .. . ... ... ... : ... .. . ... ... ... : ... .. . ... : ... .. . ... : ... .. . ...
ROW 33 : ... .. . ... ... ... : ... .. . ... ... ... : ... .. . ... : ... .. . ... : ... .. . ...
ROW 34 : ... .. . 208 ... ... : ... .. . 208 ... ... : ... .. . ... : ... .. . ... : ... .. . ...
ROW 35 : ... .. . ... ... ... : ... .. . ... ... ... : ... .. . ... : ... .. . ... : ... .. . ...
ROW 36 : ... .. . ... ... ... : ... .. . ... ... ... : ... .. . ... : ... .. . ... : ... .. . ...
ROW 37 : ... .. . ... ... ... : ... .. . ... ... ... : ... .. . ... : ... .. . ... : ... .. . ...
ROW 38 : C-4 00 . 200 ... ... : C-4 00 . 200 ... ... : ... .. . ... : ... .. . ... : ... .. . ...
ROW 39 : --- .. . ... ... ... : --- .. . ... ... ... : ... .. . ... : ... .. . ... : ... .. . ...
ROW 3A : A#3 00 . ... ... ... : A#3 00 . ... ... ... : ... .. . ... : ... .. . ... : ... .. . ...
ROW 3B : --- .. . ... ... ... : --- .. . ... ... ... : ... .. . ... : ... .. . ... : ... .. . ...
ROW 3C : C-4 00 . ... ... ... : C-4 00 . ... ... ... : ... .. . ... : ... .. . ... : ... .. . ...
ROW 3D : --- .. . ... ... ... : --- .. . ... ... ... : ... .. . ... : ... .. . ... : ... .. . ...
ROW 3E : ... .. . ... ... ... : ... .. . ... ... ... : ... .. . ... : ... .. . ... : ... .. . ...
ROW 3F : ... .. . ... ... ... : ... .. . ... ... ... : ... .. . ... : ... .. . ... : ... .. . ...

PATTERN 07
ROW 00 : ... .. . P80 V01 ... : C-4 00 9 V00 ... ... : ... .. . ... : ... .. . ... : ... .. . ...
ROW 01 : ... .. . ... ... ... : ... .. . ... ... ... : ... .. . ... : ... .. . ... : ... .. . ...
ROW 02 : ... .. . ... ... ... : --- .. . ... ... ... : ... .. . ... : ... .. . ... : ... .. . ...
ROW 03 : ... .. . ... ... ... : ... .. . ... ... ... : ... .. . ... : ... .. . ... : ... .. . ...
ROW 04 : ... .. . ... ... ... : ... .. . ... ... ... : ... .. . ... : ... .. . ... : ... .. . ...
ROW 05 : ... .. . ... ... ... : ... .. . ... ... ... : ... .. . ... : ... .. . ... : ... .. . ...
ROW 06 : ... .. . ... ... ... : ... .. . ... ... ... : ... .. . ... : ... .. . ... : ... .. . ...
ROW 07 : ... .. . ... ... ... : ... .. . ... ... ... : ... .. . ... : ... .. . ... : ... .. . ...
ROW 08 : B-4 00 8 ... ... ... : C-4 00 . ... ... ... : ... .. . ... : ... .. . ... : ... .. . ...
ROW 09 : ... .. . ... ... ... : ... .. . ... ... ... : ... .. . ... : ... .. . ... : ... .. . ...
ROW 0A : ... .. . ... ... ... : --- .. . ... ... ... : ... .. . ... : ... .. . ... : ... .. . ...
ROW 0B : ... .. . ... ... ... : ... .. . ... ... ... : ... .. . ... : ... .. . ... : ... .. . ...
ROW 0C : C-5 00 . ... ... ... : ... .. . ... ... ... : ... .. . ... : ... .. . ... : ... .. . ...
ROW 0D : ... .. . ... ... ... : ... .. . ... ... ... : ... .. . ... : ... .. . ... : ... .. . ...
ROW 0E : ... .. . ... ... ... : ... .. . ... ... ... : ... .. . ... : ... .. . ... : ... .. . ...
ROW 0F : ... .. . ... ... ... : ... .. . ... ... ... : ... .. . ... : ... .. . ... : ... .. . ...
ROW 10 : B-4 00 . ... ... ... : C-4 00 . ... ... ... : ... .. . ... : ... .. . ... : ... .. . ...
ROW 11 : ... .. . ... ... ... : ... .. . ... ... ... : ... .. . ... : ... .. . ... : ... .. . ...
ROW 12 : ... .. . ... ... ... : --- .. . ... ... ... : ... .. . ... : ... .. . ... : ... .. . ...
ROW 13 : ... .. . ... ... ... : ... .. . ... ... ... : ... .. . ... : ... .. . ... : ... .. . ...
ROW 14 : ... .. . ... ... ... : C-4 00 . ... ... ... : ... .. . ... : ... .. . ... : ... .. . ...
ROW 15 : ... .. . ... ... ... : ... .. . ... ... ... : ... .. . ... : ... .. . ... : ... .. . ...
ROW 16 : ... .. . ... ... ... : --- .. . ... ... ... : ... .. . ... : ... .. . ... : ... .. . ...
ROW 17 : ... .. . ... ... ... : ... .. . ... ... ... : ... .. . ... : ... .. . ... : ... .. . ...
ROW 18 : G-4 00 . ... ... ... : ... .. . ... ... ... : ... .. . ... : ... .. . ... : ... .. . ...
ROW 19 : ... .. . ... ... ... : ... .. . ... ... ... : ... .. . ... : ... .. . ... : ... .. . ...
ROW 1A : ... .. . ... ... ... : ... .. . ... ... ... : ... .. . ... : ... .. . ... : ... .. . ...
ROW 1B : ... .. . ... ... ... : ... .. . ... ... ... : ... .. . ... : ... .. . ... : ... .. . ...
ROW 1C : --- .. . ... ... ... : ... .. . ... ... ... : ... .. . ... : ... .. . ... : ... .. . ...
ROW 1D : ... .. . ... ... ... : ... .. . ... ... ... : ... .. . ... : ... .. . ... : ... .. . ...
ROW 1E : ... .. . ... ... ... : ... .. . ... ... ... : ... .. . ... : ... .. . ... : ... .. . ...
ROW 1F : ... .. . ... ... ... : ... .. . ... ... ... : ... .. . ... : ... .. . ... : ... .. . ...
ROW 20 : G-4 00 7 ... ... ... : C-4 00 . ... ... ... : ... .. . ... : ... .. . ... : ... .. . ...
ROW 21 : ... .. . ... ... ... : ... .. . ... ... ... : ... .. . ... : ... .. . ... : ... .. . ...
ROW 22 : ... .. . ... ... ... : --- .. . ... ... ... : ... .. . ... : ... .. . ... : ... .. . ...
ROW 23 : ... .. . ... ... ... : ... .. . ... ... ... : ... .. . ... : ... .. . ... : ... .. . ...
ROW 24 : --- .. . ... ... ... : G#3 00 . ... ... ... : ... .. . ... : ... .. . ... : ... .. . ...
ROW 25 : ... .. . ... ... ... : ... .. . ... ... ... : ... .. . ... : ... .. . ... : ... .. . ...
ROW 26 : ... .. . ... ... ... : --- .. . ... ... ... : ... .. . ... : ... .. . ... : ... .. . ...
ROW 27 : ... .. . ... ... ... : ... .. . ... ... ... : ... .. . ... : ... .. . ... : ... .. . ...
ROW 28 : G-4 00 6 ... ... ... : ... .. . ... ... ... : ... .. . ... : ... .. . ... : ... .. . ...
ROW 29 : ... .. . ... ... ... : ... .. . ... ... ... : ... .. . ... : ... .. . ... : ... .. . ...
ROW 2A : ... .. . ... 20F ... : ... .. . ... ... ... : ... .. . ... : ... .. . ... : ... .. . ...
ROW 2B : ... .. . ... ... ... : ... .. . ... ... ... : ... .. . ... : ... .. . ... : ... .. . ...
ROW 2C : --- 00 . ... 200 ... : ... .. . ... ... ... : ... .. . ... : ... .. . ... : ... .. . ...
ROW 2D : ... .. . ... ... ... : ... .. . ... ... ... : ... .. . ... : ... .. . ... : ... .. . ...
ROW 2E : ... .. . ... ... ... : ... .. . ... ... ... : ... .. . ... : ... .. . ... : ... .. . ...
ROW 2F : ... .. . ... ... ... : ... .. . ... ... ... : ... .. . ... : ... .. . ... : ... .. . ...
ROW 30 : G-4 00 5 ... ... ... : G#3 00 . ... ... ... : ... .. . ... : ... .. . ... : ... .. . ...
ROW 31 : ... .. . ... ... ... : ... .. . ... ... ... : ... .. . ... : ... .. . ... : ... .. . ...
ROW 32 : ... .. . ... 20F ... : --- .. . ... ... ... : ... .. . ... : ... .. . ... : ... .. . ...
ROW 33 : ... .. . ... ... ... : ... .. . ... ... ... : ... .. . ... : ... .. . ... : ... .. . ...
ROW 34 : --- .. . ... 200 ... : G-3 00 . ... ... ... : ... .. . ... : ... .. . ... : ... .. . ...
ROW 35 : ... .. . ... ... ... : ... .. . ... ... ... : ... .. . ... : ... .. . ... : ... .. . ...
ROW 36 : ... .. . ... ... ... : --- .. . ... ... ... : ... .. . ... : ... .. . ... : ... .. . ...
ROW 37 : ... .. . ... ... ... : ... .. . ... ... ... : ... .. . ... : ... .. . ... : ... .. . ...
ROW 38 : G-4 00 4 ... ... ... : ... .. . ... ... ... : ... .. . ... : ... .. . ... : ... .. . ...
ROW 39 : ... .. . ... ... ... : ... .. . ... ... ... : ... .. . ... : ... .. . ... : ... .. . ...
ROW 3A : ... .. . ... ... ... : ... .. . ... ... ... : ... .. . ... : ... .. . ... : ... .. . ...
ROW 3B : ... .. . ... ... ... : ... .. . ... ... ... : ... .. . ... : ... .. . ... : ... .. . ...
ROW 3C : ... .. . ... 20F ... : ... .. . ... ... ... : ... .. . ... : ... .. . ... : ... .. . ...
ROW 3D : ... .. . ... ... ... : ... .. . ... ... ... : ... .. . ... : ... .. . ... : ... .. . ...
ROW 3E : --- .. . ... 200 ... : ... .. . ... ... ... : ... .. . ... : ... .. . ... : ... .. . ...
ROW 3F : ... .. . ... ... ... : ... .. . ... ... ... : ... .. . ... : ... .. . ... : ... .. . ...

PATTERN 08
ROW 00 : ... .. . ... ... ... : C-4 00 9 V00 ... ... : ... .. . ... : ... .. . ... : ... .. . ...
ROW 01 : ... .. . ... ... ... : ... .. . ... ... ... : ... .. . ... : ... .. . ... : ... .. . ...
ROW 02 : ... .. . ... ... ... : --- .. . ... ... ... : ... .. . ... : ... .. . ... : ... .. . ...
ROW 03 : ... .. . ... ... ... : ... .. . ... ... ... : ... .. . ... : ... .. . ... : ... .. . ...
ROW 04 : ... .. . ... ... ... : ... .. . ... ... ... : ... .. . ... : ... .. . ... : ... .. . ...
ROW 05 : ... .. . ... ... ... : ... .. . ... ... ... : ... .. . ... : ... .. . ... : ... .. . ...
ROW 06 : ... .. . ... ... ... : ... .. . ... ... ... : ... .. . ... : ... .. . ... : ... .. . ...
ROW 07 : ... .. . ... ... ... : ... .. . ... ... ... : ... .. . ... : ... .. . ... : ... .. . ...
ROW 08 : ... .. . ... ... ... : C-4 00 . ... ... ... : ... .. . ... : ... .. . ... : ... .. . ...
ROW 09 : ... .. . ... ... ... : ... .. . ... ... ... : ... .. . ... : ... .. . ... : ... .. . ...
ROW 0A : ... .. . ... ... ... : --- .. . ... ... ... : ... .. . ... : ... .. . ... : ... .. . ...
ROW 0B : ... .. . ... ... ... : ... .. . ... ... ... : ... .. . ... : ... .. . ... : ... .. . ...
ROW 0C : ... .. . ... ... ... : ... .. . ... ... ... : ... .. . ... : ... .. . ... : ... .. . ...
ROW 0D : ... .. . ... ... ... : ... .. . ... ... ... : ... .. . ... : ... .. . ... : ... .. . ...
ROW 0E : ... .. . ... ... ... : ... .. . ... ... ... : ... .. . ... : ... .. . ... : ... .. . ...
ROW 0F : ... .. . ... ... ... : ... .. . ... ... ... : ... .. . ... : ... .. . ... : ... .. . ...
ROW 10 : ... .. . ... ... ... : C-4 00 . ... ... ... : ... .. . ... : ... .. . ... : ... .. . ...
ROW 11 : ... .. . ... ... ... : ... .. . ... ... ... : ... .. . ... : ... .. . ... : ... .. . ...
ROW 12 : ... .. . ... ... ... : --- .. . ... ... ... : ... .. . ... : ... .. . ... : ... .. . ...
ROW 13 : ... .. . ... ... ... : ... .. . ... ... ... : ... .. . ... : ... .. . ... : ... .. . ...
ROW 14 : ... .. . ... ... ... : C-4 00 . ... ... ... : ... .. . ... : ... .. . ... : ... .. . ...
ROW 15 : ... .. . ... ... ... : ... .. . ... ... ... : ... .. . ... : ... .. . ... : ... .. . ...
ROW 16 : ... .. . ... ... ... : --- .. . ... ... ... : ... .. . ... : ... .. . ... : ... .. . ...
ROW 17 : ... .. . ... ... ... : ... .. . ... ... ... : ... .. . ... : ... .. . ... : ... .. . ...
ROW 18 : ... .. . ... ... ... : ... .. . ... ... ... : ... .. . ... : ... .. . ... : ... .. . ...
ROW 19 : ... .. . ... ... ... : ... .. . ... ... ... : ... .. . ... : ... .. . ... : ... .. . ...
ROW 1A : ... .. . ... ... ... : ... .. . ... ... ... : ... .. . ... : ... .. . ... : ... .. . ...
ROW 1B : ... .. . ... ... ... : ... .. . ... ... ... : ... .. . ... : ... .. . ... : ... .. . ...
ROW 1C : ... .. . ... ... ... : ... .. . ... ... ... : ... .. . ... : ... .. . ... : ... .. . ...
ROW 1D : ... .. . ... ... ... : ... .. . ... ... ... : ... .. . ... : ... .. . ... : ... .. . ...
ROW 1E : ... .. . ... ... ... : ... .. . ... ... ... : ... .. . ... : ... .. . ... : ... .. . ...
ROW 1F : ... .. . ... ... ... : ... .. . ... ... ... : ... .. . ... : ... .. . ... : ... .. . ...
ROW 20 : ... .. . ... ... ... : C-4 00 . ... ... ... : ... .. . ... : ... .. . ... : ... .. . ...
ROW 21 : ... .. . ... ... ... : ... .. . ... ... ... : ... .. . ... : ... .. . ... : ... .. . ...
ROW 22 : ... .. . ... ... ... : --- .. . ... ... ... : ... .. . ... : ... .. . ... : ... .. . ...
ROW 23 : ... .. . ... ... ... : ... .. . ... ... ... : ... .. . ... : ... .. . ... : ... .. . ...
ROW 24 : ... .. . ... ... ... : G#3 00 . ... ... ... : ... .. . ... : ... .. . ... : ... .. . ...
ROW 25 : ... .. . ... ... ... : ... .. . ... ... ... : ... .. . ... : ... .. . ... : ... .. . ...
ROW 26 : ... .. . ... ... ... : --- .. . ... ... ... : ... .. . ... : ... .. . ... : ... .. . ...
ROW 27 : ... .. . ... ... ... : ... .. . ... ... ... : ... .. . ... : ... .. . ... : ... .. . ...
ROW 28 : ... .. . ... ... ... : ... .. . ... ... ... : ... .. . ... : ... .. . ... : ... .. . ...
ROW 29 : ... .. . ... ... ... : ... .. . ... ... ... : ... .. . ... : ... .. . ... : ... .. . ...
ROW 2A : ... .. . ... ... ... : ... .. . ... ... ... : ... .. . ... : ... .. . ... : ... .. . ...
ROW 2B : ... .. . ... ... ... : ... .. . ... ... ... : ... .. . ... : ... .. . ... : ... .. . ...
ROW 2C : ... .. . ... ... ... : ... .. . ... ... ... : ... .. . ... : ... .. . ... : ... .. . ...
ROW 2D : ... .. . ... ... ... : ... .. . ... ... ... : ... .. . ... : ... .. . ... : ... .. . ...
ROW 2E : ... .. . ... ... ... : ... .. . ... ... ... : ... .. . ... : ... .. . ... : ... .. . ...
ROW 2F : ... .. . ... ... ... : ... .. . ... ... ... : ... .. . ... : ... .. . ... : ... .. . ...
ROW 30 : ... .. . ... ... ... : G#3 00 . ... ... ... : ... .. . ... : ... .. . ... : ... .. . ...
ROW 31 : ... .. . ... ... ... : ... .. . ... ... ... : ... .. . ... : ... .. . ... : ... .. . ...
ROW 32 : ... .. . ... ... ... : --- .. . ... ... ... : ... .. . ... : ... .. . ... : ... .. . ...
ROW 33 : ... .. . ... ... ... : ... .. . ... ... ... : ... .. . ... : ... .. . ... : ... .. . ...
ROW 34 : ... .. . ... ... ... : A#3 00 . ... ... ... : ... .. . ... : ... .. . ... : ... .. . ...
ROW 35 : ... .. . ... ... ... : ... .. . ... ... ... : ... .. . ... : ... .. . ... : ... .. . ...
ROW 36 : ... .. . ... ... ... : --- .. . ... ... ... : ... .. . ... : ... .. . ... : ... .. . ...
ROW 37 : ... .. . ... ... ... : ... .. . ... ... ... : ... .. . ... : ... .. . ... : ... .. . ...
ROW 38 : ... .. . ... ... ... : C-4 00 . ... ... ... : ... .. . ... : ... .. . ... : ... .. . ...
ROW 39 : ... .. . ... ... ... : ... .. . ... ... ... : ... .. . ... : ... .. . ... : ... .. . ...
ROW 3A : ... .. . ... ... ... : A#3 00 . ... ... ... : ... .. . ... : ... .. . ... : ... .. . ...
ROW 3B : ... .. . ... ... ... : ... .. . ... ... ... : ... .. . ... : ... .. . ... : ... .. . ...
ROW 3C : ... .. . ... ... ... : C-4 00 . ... ... ... : ... .. . ... : ... .. . ... : ... .. . ...
ROW 3D : ... .. . ... ... ... : ... .. . ... ... ... : ... .. . ... : ... .. . ... : ... .. . ...
ROW 3E : ... .. . ... ... ... : ... .. . ... ... ... : ... .. . ... : ... .. . ... : ... .. . ...
ROW 3F : ... .. . ... ... ... : ... .. . ... ... ... : ... .. . ... : ... .. . ... : ... .. . ...

PATTERN 09
ROW 00 : G-3 00 5 V00 472 ... : G-4 00 9 V01 ... ... : ... .. . ... : ... .. . ... : ... .. . ...
ROW 01 : ... .. . ... ... ... : ... .. . ... ... ... : ... .. . ... : ... .. . ... : ... .. . ...
ROW 02 : --- 00 . ... ... ... : ... .. . ... ... ... : ... .. . ... : ... .. . ... : ... .. . ...
ROW 03 : ... .. . ... ... ... : ... .. . ... ... ... : ... .. . ... : ... .. . ... : ... .. . ...
ROW 04 : G-3 00 . 077 ... ... : ... .. . ... ... ... : ... .. . ... : ... .. . ... : ... .. . ...
ROW 05 : ... .. . ... ... ... : ... .. . ... ... ... : ... .. . ... : ... .. . ... : ... .. . ...
ROW 06 : --- .. . ... ... ... : ... .. . ... ... ... : ... .. . ... : ... .. . ... : ... .. . ...
ROW 07 : ... .. . ... ... ... : ... .. . ... ... ... : ... .. . ... : ... .. . ... : ... .. . ...
ROW 08 : G-3 00 . 077 ... ... : ... .. . ... ... ... : ... .. . ... : ... .. . ... : ... .. . ...
ROW 09 : ... .. . ... ... ... : ... .. . ... ... ... : ... .. . ... : ... .. . ... : ... .. . ...
ROW 0A : --- .. . ... ... ... : ... .. . ... ... ... : ... .. . ... : ... .. . ... : ... .. . ...
ROW 0B : ... .. . ... ... ... : ... .. . ... ... ... : ... .. . ... : ... .. . ... : ... .. . ...
ROW 0C : G-3 00 . 077 ... ... : ... .. . ... ... ... : ... .. . ... : ... .. . ... : ... .. . ...
ROW 0D : ... .. . ... ... ... : ... .. . ... ... ... : ... .. . ... : ... .. . ... : ... .. . ...
ROW 0E : --- .. . ... ... ... : ... .. . 106 ... ... : ... .. . ... : ... .. . ... : ... .. . ...
ROW 0F : ... .. . ... ... ... : ... .. . ... ... ... : ... .. . ... : ... .. . ... : ... .. . ...
ROW 10 : A-3 00 . 000 ... ... : A-4 00 . 100 ... ... : ... .. . ... : ... .. . ... : ... .. . ...
ROW 11 : ... .. . ... ... ... : ... .. . ... ... ... : ... .. . ... : ... .. . ... : ... .. . ...
ROW 12 : ... .. . ... ... ... : ... .. . ... ... ... : ... .. . ... : ... .. . ... : ... .. . ...
ROW 13 : ... .. . ... ... ... : ... .. . ... ... ... : ... .. . ... : ... .. . ... : ... .. . ...
ROW 14 : A-3 00 . 077 ... ... : ... .. . ... ... ... : ... .. . ... : ... .. . ... : ... .. . ...
ROW 15 : ... .. . ... ... ... : ... .. . ... ... ... : ... .. . ... : ... .. . ... : ... .. . ...
ROW 16 : --- .. . ... ... ... : ... .. . ... ... ... : ... .. . ... : ... .. . ... : ... .. . ...
ROW 17 : ... .. . ... ... ... : ... .. . ... ... ... : ... .. . ... : ... .. . ... : ... .. . ...
ROW 18 : A-3 00 . 077 ... ... : ... .. . 473 ... ... : ... .. . ... : ... .. . ... : ... .. . ...
ROW 19 : ... .. . ... ... ... : ... .. . ... ... ... : ... .. . ... : ... .. . ... : ... .. . ...
ROW 1A : --- .. . ... ... ... : ... .. . ... ... ... : ... .. . ... : ... .. . ... : ... .. . ...
ROW 1B : ... .. . ... ... ... : ... .. . ... ... ... : ... .. . ... : ... .. . ... : ... .. . ...
ROW 1C : A-3 00 . 077 ... ... : ... .. . ... ... ... : ... .. . ... : ... .. . ... : ... .. . ...
ROW 1D : ... .. . ... ... ... : ... .. . ... ... ... : ... .. . ... : ... .. . ... : ... .. . ...
ROW 1E : --- .. . ... ... ... : ... .. . ... 107 ... : ... .. . ... : ... .. . ... : ... .. . ...
ROW 1F : ... .. . ... ... ... : ... .. . 400 ... ... : ... .. . ... : ... .. . ... : ... .. . ...
ROW 20 : A#3 00 . 000 ... ... : A#4 00 . ... 100 ... : ... .. . ... : ... .. . ... : ... .. . ...
ROW 21 : ... .. . ... ... ... : ... .. . ... ... ... : ... .. . ... : ... .. . ... : ... .. . ...
ROW 22 : ... .. . ... ... ... : ... .. . ... ... ... : ... .. . ... : ... .. . ... : ... .. . ...
ROW 23 : ... .. . ... ... ... : ... .. . ... ... ... : ... .. . ... : ... .. . ... : ... .. . ...
ROW 24 : A#3 00 . 077 ... ... : ... .. . ... ... ... : ... .. . ... : ... .. . ... : ... .. . ...
ROW 25 : ... .. . ... ... ... : ... .. . ... ... ... : ... .. . ... : ... .. . ... : ... .. . ...
ROW 26 : --- .. . ... ... ... : ... .. . ... ... ... : ... .. . ... : ... .. . ... : ... .. . ...
ROW 27 : ... .. . ... ... ... : ... .. . ... ... ... : ... .. . ... : ... .. . ... : ... .. . ...
ROW 28 : A#3 00 . 077 ... ... : ... .. . ... ... ... : ... .. . ... : ... .. . ... : ... .. . ...
ROW 29 : ... .. . ... ... ... : ... .. . ... ... ... : ... .. . ... : ... .. . ... : ... .. . ...
ROW 2A : --- .. . ... ... ... : ... .. . ... ... ... : ... .. . ... : ... .. . ... : ... .. . ...
ROW 2B : ... .. . ... ... ... : ... .. . ... ... ... : ... .. . ... : ... .. . ... : ... .. . ...
ROW 2C : A#3 00 . 077 ... ... : ... .. . ... ... ... : ... .. . ... : ... .. . ... : ... .. . ...
ROW 2D : ... .. . ... ... ... : ... .. . ... ... ... : ... .. . ... : ... .. . ... : ... .. . ...
ROW 2E : --- .. . ... ... ... : ... .. . ... ... ... : ... .. . ... : ... .. . ... : ... .. . ...
ROW 2F : ... .. . ... ... ... : ... .. . ... ... ... : ... .. . ... : ... .. . ... : ... .. . ...
ROW 30 : A#3 00 . 077 ... ... : ... .. . 477 ... ... : ... .. . ... : ... .. . ... : ... .. . ...
ROW 31 : ... .. . ... ... ... : ... .. . ... ... ... : ... .. . ... : ... .. . ... : ... .. . ...
ROW 32 : --- .. . ... ... ... : ... .. . ... ... ... : ... .. . ... : ... .. . ... : ... .. . ...
ROW 33 : ... .. . ... ... ... : ... .. . ... ... ... : ... .. . ... : ... .. . ... : ... .. . ...
ROW 34 : A#3 00 . 077 ... ... : ... .. . ... ... ... : ... .. . ... : ... .. . ... : ... .. . ...
ROW 35 : ... .. . ... ... ... : ... .. . ... ... ... : ... .. . ... : ... .. . ... : ... .. . ...
ROW 36 : --- .. . ... ... ... : ... .. . ... ... ... : ... .. . ... : ... .. . ... : ... .. . ...
ROW 37 : ... .. . ... ... ... : ... .. . ... ... ... : ... .. . ... : ... .. . ... : ... .. . ...
ROW 38 : A#3 00 . 077 ... ... : ... .. . ... ... ... : ... .. . ... : ... .. . ... : ... .. . ...
ROW 39 : ... .. . ... ... ... : ... .. . ... ... ... : ... .. . ... : ... .. . ... : ... .. . ...
ROW 3A : --- .. . ... ... ... : ... .. . ... ... ... : ... .. . ... : ... .. . ... : ... .. . ...
ROW 3B : ... .. . ... ... ... : ... .. . ... ... ... : ... .. . ... : ... .. . ... : ... .. . ...
ROW 3C : A#3 00 . 077 ... ... : ... .. . ... ... ... : ... .. . ... : ... .. . ... : ... .. . ...
ROW 3D : ... .. . ... ... ... : ... .. . ... ... ... : ... .. . ... : ... .. . ... : ... .. . ...
ROW 3E : --- .. . ... ... ... : ... .. . ... ... ... : ... .. . ... : ... .. . ... : ... .. . ...
ROW 3F : ... .. . ... ... ... : ... .. . ... ... ... : ... .. . ... : ... .. . ... : ... .. . ...

PATTERN 0A
ROW 00 : A-3 00 5 V00 472 000 : A-4 00 . V01 432 ... : ... .. . ... : ... .. . ... : ... .. . ...
ROW 01 : ... .. . ... ... ... : ... .. . ... ... ... : ... .. . ... : ... .. . ... : ... .. . ...
ROW 02 : ... .. . ... ... ... : ... .. . ... ... ... : ... .. . ... : ... .. . ... : ... .. . ...
ROW 03 : ... .. . ... ... ... : ... .. . ... ... ... : ... .. . ... : ... .. . ... : ... .. . ...
ROW 04 : A-3 00 . 077 ... ... : ... .. . ... ... ... : ... .. . ... : ... .. . ... : ... .. . ...
ROW 05 : ... .. . ... ... ... : ... .. . ... ... ... : ... .. . ... : ... .. . ... : ... .. . ...
ROW 06 : --- .. . ... ... ... : ... .. . ... ... ... : ... .. . ... : ... .. . ... : ... .. . ...
ROW 07 : ... .. . ... ... ... : ... .. . ... ... ... : ... .. . ... : ... .. . ... : ... .. . ...
ROW 08 : A-3 00 . 077 ... ... : ... .. . ... ... ... : ... .. . ... : ... .. . ... : ... .. . ...
ROW 09 : ... .. . ... ... ... : ... .. . ... ... ... : ... .. . ... : ... .. . ... : ... .. . ...
ROW 0A : --- .. . ... ... ... : ... .. . ... ... ... : ... .. . ... : ... .. . ... : ... .. . ...
ROW 0B : ... .. . ... ... ... : ... .. . ... ... ... : ... .. . ... : ... .. . ... : ... .. . ...
ROW 0C : A-3 00 . 077 ... ... : ... .. . ... ... ... : ... .. . ... : ... .. . ... : ... .. . ...
ROW 0D : ... .. . ... ... ... : ... .. . ... ... ... : ... .. . ... : ... .. . ... : ... .. . ...
ROW 0E : --- .. . ... ... ... : ... .. . ... ... ... : ... .. . ... : ... .. . ... : ... .. . ...
ROW 0F : ... .. . ... ... ... : ... .. . ... ... ... : ... .. . ... : ... .. . ... : ... .. . ...
ROW 10 : G-3 00 . ... ... ... : G-4 00 . ... ... ... : ... .. . ... : ... .. . ... : ... .. . ...
ROW 11 : ... .. . ... ... ... : ... .. . ... 106 ... : ... .. . ... : ... .. . ... : ... .. . ...
ROW 12 : A-3 00 . ... ... ... : A-4 00 . ... 100 ... : ... .. . ... : ... .. . ... : ... .. . ...
ROW 13 : ... .. . ... ... ... : ... .. . ... ... ... : ... .. . ... : ... .. . ... : ... .. . ...
ROW 14 : G-3 00 6 000 ... ... : G-4 00 . ... 474 ... : ... .. . ... : ... .. . ... : ... .. . ...
ROW 15 : ... .. . ... 475 ... : ... .. . ... ... ... : ... .. . ... : ... .. . ... : ... .. . ...
ROW 16 : ... .. . ... ... ... : ... .. . ... ... ... : ... .. . ... : ... .. . ... : ... .. . ...
ROW 17 : ... .. . ... ... ... : ... .. . ... ... ... : ... .. . ... : ... .. . ... : ... .. . ...
ROW 18 : ... .. . ... ... ... : ... .. . ... ... ... : ... .. . ... : ... .. . ... : ... .. . ...
ROW 19 : ... .. . ... ... ... : ... .. . ... ... ... : ... .. . ... : ... .. . ... : ... .. . ...
ROW 1A : ... .. . ... ... ... : ... .. . ... ... ... : ... .. . ... : ... .. . ... : ... .. . ...
ROW 1B : ... .. . ... ... ... : ... .. . ... ... ... : ... .. . ... : ... .. . ... : ... .. . ...
ROW 1C : ... .. . ... ... ... : ... .. . ... ... ... : ... .. . ... : ... .. . ... : ... .. . ...
ROW 1D : ... .. . ... ... ... : ... .. . ... ... ... : ... .. . ... : ... .. . ... : ... .. . ...
ROW 1E : ... .. . ... ... ... : ... .. . ... ... ... : ... .. . ... : ... .. . ... : ... .. . ...
ROW 1F : ... .. . ... ... ... : ... .. . ... ... ... : ... .. . ... : ... .. . ... : ... .. . ...
ROW 20 : ... .. . ... ... ... : ... .. . ... ... ... : ... .. . ... : ... .. . ... : ... .. . ...
ROW 21 : ... .. . ... ... ... : ... .. . ... ... ... : ... .. . ... : ... .. . ... : ... .. . ...
ROW 22 : ... .. . ... ... ... : ... .. . ... ... ... : ... .. . ... : ... .. . ... : ... .. . ...
ROW 23 : ... .. . ... ... ... : ... .. . ... ... ... : ... .. . ... : ... .. . ... : ... .. . ...
ROW 24 : ... .. . ... ... ... : ... .. . ... ... ... : ... .. . ... : ... .. . ... : ... .. . ...
ROW 25 : ... .. . ... ... ... : ... .. . ... ... ... : ... .. . ... : ... .. . ... : ... .. . ...
ROW 26 : ... .. . ... ... ... : ... .. . ... ... ... : ... .. . ... : ... .. . ... : ... .. . ...
ROW 27 : ... .. . ... ... ... : ... .. . ... ... ... : ... .. . ... : ... .. . ... : ... .. . ...
ROW 28 : ... .. . ... ... ... : ... .. . ... ... ... : ... .. . ... : ... .. . ... : ... .. . ...
ROW 29 : ... .. . ... ... ... : ... .. . ... ... ... : ... .. . ... : ... .. . ... : ... .. . ...
ROW 2A : ... .. . ... ... ... : ... .. . ... ... ... : ... .. . ... : ... .. . ... : ... .. . ...
ROW 2B : ... .. . ... ... ... : ... .. . ... ... ... : ... .. . ... : ... .. . ... : ... .. . ...
ROW 2C : ... .. . ... ... ... : ... .. . ... ... ... : ... .. . ... : ... .. . ... : ... .. . ...
ROW 2D : ... .. . ... ... ... : ... .. . ... ... ... : ... .. . ... : ... .. . ... : ... .. . ...
ROW 2E : ... .. . ... ... ... : ... .. . ... ... ... : ... .. . ... : ... .. . ... : ... .. . ...
ROW 2F : ... .. . ... ... ... : ... .. . ... ... ... : ... .. . ... : ... .. . ... : ... .. . ...
ROW 30 : E-3 00 . ... ... ... : E-4 00 . ... 400 ... : ... .. . ... : ... .. . ... : ... .. . ...
ROW 31 : ... .. . ... ... ... : ... .. . ... ... ... : ... .. . ... : ... .. . ... : ... .. . ...
ROW 32 : ... .. . ... ... ... : ... .. . ... ... ... : ... .. . ... : ... .. . ... : ... .. . ...
ROW 33 : ... .. . ... ... ... : ... .. . ... ... ... : ... .. . ... : ... .. . ... : ... .. . ...
ROW 34 : ... .. . 4FC ... ... : ... .. . ... ... ... : ... .. . ... : ... .. . ... : ... .. . ...
ROW 35 : ... .. . ... ... ... : ... .. . ... ... ... : ... .. . ... : ... .. . ... : ... .. . ...
ROW 36 : ... .. . ... ... ... : ... .. . ... ... ... : ... .. . ... : ... .. . ... : ... .. . ...
ROW 37 : ... .. . ... ... ... : ... .. . ... ... ... : ... .. . ... : ... .. . ... : ... .. . ...
ROW 38 : ... .. . ... ... ... : ... .. . 4FC ... ... : ... .. . ... : ... .. . ... : ... .. . ...
ROW 39 : ... .. . ... ... ... : ... .. . ... ... ... : ... .. . ... : ... .. . ... : ... .. . ...
ROW 3A : ... .. . ... ... ... : ... .. . ... ... ... : ... .. . ... : ... .. . ... : ... .. . ...
ROW 3B : ... .. . ... ... ... : ... .. . ... ... ... : ... .. . ... : ... .. . ... : ... .. . ...
ROW 3C : ... .. . ... ... ... : ... .. . ... ... ... : ... .. . ... : ... .. . ... : ... .. . ...
ROW 3D : ... .. . ... ... ... : ... .. . ... ... ... : ... .. . ... : ... .. . ... : ... .. . ...
ROW 3E : --- .. . ... ... ... : --- .. . ... ... ... : ... .. . ... : ... .. . ... : ... .. . ...
ROW 3F : ... .. . ... ... ... : ... .. . ... ... ... : ... .. . ... : ... .. . ... : ... .. . ...

PATTERN 0B
ROW 00 : C-5 00 9 ... ... ... : C-4 00 9 V00 ... ... : ... .. . ... : ... .. . ... : ... .. . ...
ROW 01 : ... .. . ... ... ... : ... .. . ... ... ... : ... .. . ... : ... .. . ... : ... .. . ...
ROW 02 : ... .. . ... ... ... : --- .. . ... ... ... : ... .. . ... : ... .. . ... : ... .. . ...
ROW 03 : ... .. . ... ... ... : ... .. . ... ... ... : ... .. . ... : ... .. . ... : ... .. . ...
ROW 04 : ... .. . ... ... ... : ... .. . ... ... ... : ... .. . ... : ... .. . ... : ... .. . ...
ROW 05 : ... .. . ... ... ... : ... .. . ... ... ... : ... .. . ... : ... .. . ... : ... .. . ...
ROW 06 : ... .. . ... ... ... : ... .. . ... ... ... : ... .. . ... : ... .. . ... : ... .. . ...
ROW 07 : ... .. . ... ... ... : ... .. . ... ... ... : ... .. . ... : ... .. . ... : ... .. . ...
ROW 08 : ... .. . 4FC ... ... : C-4 00 . ... ... ... : ... .. . ... : ... .. . ... : ... .. . ...
ROW 09 : ... .. . ... ... ... : ... .. . ... ... ... : ... .. . ... : ... .. . ... : ... .. . ...
ROW 0A : ... .. . ... ... ... : --- .. . ... ... ... : ... .. . ... : ... .. . ... : ... .. . ...
ROW 0B : ... .. . ... ... ... : ... .. . ... ... ... : ... .. . ... : ... .. . ... : ... .. . ...
ROW 0C : ... .. . 400 ... ... : ... .. . ... ... ... : ... .. . ... : ... .. . ... : ... .. . ...
ROW 0D : ... .. . ... ... ... : ... .. . ... ... ... : ... .. . ... : ... .. . ... : ... .. . ...
ROW 0E : ... .. . ... ... ... : ... .. . ... ... ... : ... .. . ... : ... .. . ... : ... .. . ...
ROW 0F : ... .. . ... ... ... : ... .. . ... ... ... : ... .. . ... : ... .. . ... : ... .. . ...
ROW 10 : G-4 00 . ... ... ... : C-4 00 . ... ... ... : ... .. . ... : ... .. . ... : ... .. . ...
ROW 11 : ... .. . ... ... ... : ... .. . ... ... ... : ... .. . ... : ... .. . ... : ... .. . ...
ROW 12 : ... .. . ... ... ... : --- .. . ... ... ... : ... .. . ... : ... .. . ... : ... .. . ...
ROW 13 : ... .. . ... ... ... : ... .. . ... ... ... : ... .. . ... : ... .. . ... : ... .. . ...
ROW 14 : ... .. . ... ... ... : C-4 00 . ... ... ... : ... .. . ... : ... .. . ... : ... .. . ...
ROW 15 : ... .. . ... ... ... : ... .. . ... ... ... : ... .. . ... : ... .. . ... : ... .. . ...
ROW 16 : ... .. . ... ... ... : --- .. . ... ... ... : ... .. . ... : ... .. . ... : ... .. . ...
ROW 17 : ... .. . ... ... ... : ... .. . ... ... ... : ... .. . ... : ... .. . ... : ... .. . ...
ROW 18 : ... .. . ... ... ... : ... .. . ... ... ... : ... .. . ... : ... .. . ... : ... .. . ...
ROW 19 : ... .. . ... ... ... : ... .. . ... ... ... : ... .. . ... : ... .. . ... : ... .. . ...
ROW 1A : ... .. . ... ... ... : ... .. . ... ... ... : ... .. . ... : ... .. . ... : ... .. . ...
ROW 1B : ... .. . ... ... ... : ... .. . ... ... ... : ... .. . ... : ... .. . ... : ... .. . ...
ROW 1C : ... .. . 4FC ... ... : ... .. . ... ... ... : ... .. . ... : ... .. . ... : ... .. . ...
ROW 1D : ... .. . ... ... ... : ... .. . ... ... ... : ... .. . ... : ... .. . ... : ... .. . ...
ROW 1E : ... .. . ... ... ... : ... .. . ... ... ... : ... .. . ... : ... .. . ... : ... .. . ...
ROW 1F : ... .. . ... ... ... : ... .. . ... ... ... : ... .. . ... : ... .. . ... : ... .. . ...
ROW 20 : ... .. . 400 ... ... : C-4 00 . ... ... ... : ... .. . ... : ... .. . ... : ... .. . ...
ROW 21 : ... .. . ... ... ... : ... .. . ... ... ... : ... .. . ... : ... .. . ... : ... .. . ...
ROW 22 : ... .. . ... ... ... : --- .. . ... ... ... : ... .. . ... : ... .. . ... : ... .. . ...
ROW 23 : ... .. . ... ... ... : ... .. . ... ... ... : ... .. . ... : ... .. . ... : ... .. . ...
ROW 24 : ... .. . ... ... ... : G#3 00 . ... ... ... : ... .. . ... : ... .. . ... : ... .. . ...
ROW 25 : ... .. . ... ... ... : ... .. . ... ... ... : ... .. . ... : ... .. . ... : ... .. . ...
ROW 26 : ... .. . ... ... ... : --- .. . ... ... ... : ... .. . ... : ... .. . ... : ... .. . ...
ROW 27 : ... .. . ... ... ... : ... .. . ... ... ... : ... .. . ... : ... .. . ... : ... .. . ...
ROW 28 : G-4 00 . ... ... ... : ... .. . ... ... ... : ... .. . ... : ... .. . ... : ... .. . ...
ROW 29 : ... .. . ... ... ... : ... .. . ... ... ... : ... .. . ... : ... .. . ... : ... .. . ...
ROW 2A : ... .. . ... ... ... : ... .. . ... ... ... : ... .. . ... : ... .. . ... : ... .. . ...
ROW 2B : ... .. . ... ... ... : ... .. . ... ... ... : ... .. . ... : ... .. . ... : ... .. . ...
ROW 2C : ... .. . 107 ... ... : ... .. . ... ... ... : ... .. . ... : ... .. . ... : ... .. . ...
ROW 2D : ... .. . ... ... ... : ... .. . ... ... ... : ... .. . ... : ... .. . ... : ... .. . ...
ROW 2E : ... .. . ... ... ... : ... .. . ... ... ... : ... .. . ... : ... .. . ... : ... .. . ...
ROW 2F : ... .. . ... ... ... : ... .. . ... ... ... : ... .. . ... : ... .. . ... : ... .. . ...
ROW 30 : G-4 00 . 100 ... ... : G#3 00 . ... ... ... : ... .. . ... : ... .. . ... : ... .. . ...
ROW 31 : ... .. . ... ... ... : ... .. . ... ... ... : ... .. . ... : ... .. . ... : ... .. . ...
ROW 32 : ... .. . ... ... ... : --- .. . ... ... ... : ... .. . ... : ... .. . ... : ... .. . ...
ROW 33 : ... .. . ... ... ... : ... .. . ... ... ... : ... .. . ... : ... .. . ... : ... .. . ...
ROW 34 : ... .. . A01 ... ... : G-3 00 . ... ... ... : ... .. . ... : ... .. . ... : ... .. . ...
ROW 35 : ... .. . ... ... ... : ... .. . ... ... ... : ... .. . ... : ... .. . ... : ... .. . ...
ROW 36 : ... .. . ... ... ... : --- .. . ... ... ... : ... .. . ... : ... .. . ... : ... .. . ...
ROW 37 : ... .. . ... ... ... : ... .. . ... ... ... : ... .. . ... : ... .. . ... : ... .. . ...
ROW 38 : ... .. . ... ... ... : ... .. . ... ... ... : ... .. . ... : ... .. . ... : ... .. . ...
ROW 39 : ... .. . ... ... ... : ... .. . ... ... ... : ... .. . ... : ... .. . ... : ... .. . ...
ROW 3A : ... .. . ... ... ... : G-3 00 . ... ... ... : ... .. . ... : ... .. . ... : ... .. . ...
ROW 3B : ... .. . ... ... ... : A-3 00 . ... ... ... : ... .. . ... : ... .. . ... : ... .. . ...
ROW 3C : ... .. . ... ... ... : G#3 00 . ... ... ... : ... .. . ... : ... .. . ... : ... .. . ...
ROW 3D : ... .. . ... ... ... : C-4 00 . ... ... ... : ... .. . ... : ... .. . ... : ... .. . ...
ROW 3E : --- .. . A00 ... ... : F-4 00 . ... ... ... : ... .. . ... : ... .. . ... : ... .. . ...
ROW 3F : ... .. . ... ... ... : ... .. . ... ... ... : ... .. . ... : ... .. . ... : ... .. . ...

PATTERN 0C
ROW 00 : ... .. 8 ... ... ... : C-4 00 9 400 000 V01 : ... .. . ... : ... .. . ... : ... .. . ...
ROW 01 : ... .. . ... ... ... : ... .. . ... ... ... : ... .. . ... : ... .. . ... : ... .. . ...
ROW 02 : ... .. . ... ... ... : ... .. . ... ... ... : ... .. . ... : ... .. . ... : ... .. . ...
ROW 03 : ... .. . ... ... ... : ... .. . ... ... ... : ... .. . ... : ... .. . ... : ... .. . ...
ROW 04 : ... .. . ... ... ... : ... .. . ... ... ... : ... .. . ... : ... .. . ... : ... .. . ...
ROW 05 : ... .. . ... ... ... : ... .. . ... ... ... : ... .. . ... : ... .. . ... : ... .. . ...
ROW 06 : ... .. . ... ... ... : ... .. . ... ... ... : ... .. . ... : ... .. . ... : ... .. . ...
ROW 07 : ... .. . ... ... ... : ... .. . ... ... ... : ... .. . ... : ... .. . ... : ... .. . ...
ROW 08 : C-4 00 . ... 074 ... : ... .. . ... ... ... : ... .. . ... : ... .. . ... : ... .. . ...
ROW 09 : ... .. . ... ... ... : ... .. . ... ... ... : ... .. . ... : ... .. . ... : ... .. . ...
ROW 0A : --- 00 . ... ... ... : ... .. . ... ... ... : ... .. . ... : ... .. . ... : ... .. . ...
ROW 0B : ... .. . ... ... ... : ... .. . ... ... ... : ... .. . ... : ... .. . ... : ... .. . ...
ROW 0C : C-4 00 . ... 074 ... : ... .. . ... ... ... : ... .. . ... : ... .. . ... : ... .. . ...
ROW 0D : ... .. . ... ... ... : ... .. . ... ... ... : ... .. . ... : ... .. . ... : ... .. . ...
ROW 0E : --- 00 . ... ... ... : ... .. . ... ... ... : ... .. . ... : ... .. . ... : ... .. . ...
ROW 0F : ... .. . ... ... ... : ... .. . ... ... ... : ... .. . ... : ... .. . ... : ... .. . ...
ROW 10 : ... .. . ... ... ... : G-4 00 . ... ... V00 : ... .. . ... : ... .. . ... : ... .. . ...
ROW 11 : ... .. . ... ... ... : ... .. . ... ... ... : ... .. . ... : ... .. . ... : ... .. . ...
ROW 12 : ... .. . ... ... ... : ... .. . ... ... ... : ... .. . ... : ... .. . ... : ... .. . ...
ROW 13 : ... .. . ... ... ... : ... .. . ... ... ... : ... .. . ... : ... .. . ... : ... .. . ...
ROW 14 : C-4 00 . ... 074 ... : ... .. . ... ... ... : ... .. . ... : ... .. . ... : ... .. . ...
ROW 15 : ... .. . ... ... ... : ... .. . ... ... ... : ... .. . ... : ... .. . ... : ... .. . ...
ROW 16 : --- 00 . ... ... ... : ... .. . ... ... ... : ... .. . ... : ... .. . ... : ... .. . ...
ROW 17 : ... .. . ... ... ... : ... .. . ... ... ... : ... .. . ... : ... .. . ... : ... .. . ...
ROW 18 : ... .. . ... ... ... : ... .. . 204 ... ... : ... .. . ... : ... .. . ... : ... .. . ...
ROW 19 : ... .. . ... ... ... : ... .. . ... ... ... : ... .. . ... : ... .. . ... : ... .. . ...
ROW 1A : ... .. . ... ... ... : ... .. . ... ... ... : ... .. . ... : ... .. . ... : ... .. . ...
ROW 1B : ... .. . ... ... ... : ... .. . ... ... ... : ... .. . ... : ... .. . ... : ... .. . ...
ROW 1C : ... .. . ... ... ... : ... .. . ... ... ... : ... .. . ... : ... .. . ... : ... .. . ...
ROW 1D : ... .. . ... ... ... : ... .. . ... ... ... : ... .. . ... : ... .. . ... : ... .. . ...
ROW 1E : ... .. . ... ... ... : ... .. . ... ... ... : ... .. . ... : ... .. . ... : ... .. . ...
ROW 1F : ... .. . ... ... ... : ... .. . ... ... ... : ... .. . ... : ... .. . ... : ... .. . ...
ROW 20 : C-4 00 . ... 074 ... : E-4 00 . 200 ... ... : ... .. . ... : ... .. . ... : ... .. . ...
ROW 21 : ... .. . ... ... ... : ... .. . ... ... ... : ... .. . ... : ... .. . ... : ... .. . ...
ROW 22 : --- 00 . ... ... ... : ... .. . ... ... ... : ... .. . ... : ... .. . ... : ... .. . ...
ROW 23 : ... .. . ... ... ... : ... .. . ... ... ... : ... .. . ... : ... .. . ... : ... .. . ...
ROW 24 : C-4 00 . ... 074 ... : ... .. . ... ... ... : ... .. . ... : ... .. . ... : ... .. . ...
ROW 25 : ... .. . ... ... ... : ... .. . ... ... ... : ... .. . ... : ... .. . ... : ... .. . ...
ROW 26 : --- 00 . ... ... ... : ... .. . ... ... ... : ... .. . ... : ... .. . ... : ... .. . ...
ROW 27 : ... .. . ... ... ... : ... .. . ... ... ... : ... .. . ... : ... .. . ... : ... .. . ...
ROW 28 : ... .. . ... ... ... : G-4 00 8 ... ... V01 : ... .. . ... : ... .. . ... : ... .. . ...
ROW 29 : ... .. . ... ... ... : ... .. . ... ... ... : ... .. . ... : ... .. . ... : ... .. . ...
ROW 2A : ... .. . ... ... ... : ... .. . ... ... ... : ... .. . ... : ... .. . ... : ... .. . ...
ROW 2B : ... .. . ... ... ... : ... .. . ... ... ... : ... .. . ... : ... .. . ... : ... .. . ...
ROW 2C : C-4 00 . ... 074 ... : ... .. . ... ... ... : ... .. . ... : ... .. . ... : ... .. . ...
ROW 2D : ... .. . ... ... ... : ... .. . ... ... ... : ... .. . ... : ... .. . ... : ... .. . ...
ROW 2E : --- 00 . ... ... ... : ... .. . ... ... ... : ... .. . ... : ... .. . ... : ... .. . ...
ROW 2F : ... .. . ... ... ... : ... .. . ... ... ... : ... .. . ... : ... .. . ... : ... .. . ...
ROW 30 : C-4 00 . ... 074 ... : G-4 00 7 ... ... ... : ... .. . ... : ... .. . ... : ... .. . ...
ROW 31 : ... .. . ... ... ... : ... .. . ... ... ... : ... .. . ... : ... .. . ... : ... .. . ...
ROW 32 : --- 00 . ... ... ... : ... .. . ... ... ... : ... .. . ... : ... .. . ... : ... .. . ...
ROW 33 : ... .. . ... ... ... : ... .. . ... ... ... : ... .. . ... : ... .. . ... : ... .. . ...
ROW 34 : C-4 00 . ... 074 ... : G-4 00 6 ... ... ... : ... .. . ... : ... .. . ... : ... .. . ...
ROW 35 : ... .. . ... ... ... : ... .. . ... ... ... : ... .. . ... : ... .. . ... : ... .. . ...
ROW 36 : --- 00 . ... ... ... : --- .. . ... ... ... : ... .. . ... : ... .. . ... : ... .. . ...
ROW 37 : ... .. . ... ... ... : ... .. . ... ... ... : ... .. . ... : ... .. . ... : ... .. . ...
ROW 38 : C-4 00 . ... 074 ... : G-4 00 5 ... ... ... : ... .. . ... : ... .. . ... : ... .. . ...
ROW 39 : ... .. . ... ... ... : --- .. . ... ... ... : ... .. . ... : ... .. . ... : ... .. . ...
ROW 3A : --- 00 . ... ... ... : G-4 00 4 ... ... ... : ... .. . ... : ... .. . ... : ... .. . ...
ROW 3B : ... .. . ... ... ... : --- .. . ... ... ... : ... .. . ... : ... .. . ... : ... .. . ...
ROW 3C : C-4 00 . ... 074 ... : G-4 00 3 ... ... ... : ... .. . ... : ... .. . ... : ... .. . ...
ROW 3D : ... .. . ... ... ... : --- 00 . ... ... ... : ... .. . ... : ... .. . ... : ... .. . ...
ROW 3E : --- 00 . ... ... ... : G-4 00 2 ... ... ... : ... .. . ... : ... .. . ... : ... .. . ...
ROW 3F : ... .. . ... ... ... : --- .. . ... ... ... : ... .. . ... : ... .. . ... : ... .. . ...

PATTERN 0D
ROW 00 : C-4 00 . ... ... ... : C-4 00 8 ... V02 ... : ... .. . ... : ... .. . ... : ... .. . ...
ROW 01 : ... .. . ... ... ... : ... .. . ... ... ... : ... .. . ... : ... .. . ... : ... .. . ...
ROW 02 : ... .. . 206 ... ... : ... .. . 104 ... ... : ... .. . ... : ... .. . ... : ... .. . ...
ROW 03 : ... .. . ... ... ... : ... .. . ... ... ... : ... .. . ... : ... .. . ... : ... .. . ...
ROW 04 : --- .. . 200 ... ... : D-4 00 . 100 ... ... : ... .. . ... : ... .. . ... : ... .. . ...
ROW 05 : ... .. . ... ... ... : ... .. . ... ... ... : ... .. . ... : ... .. . ... : ... .. . ...
ROW 06 : ... .. . ... ... ... : ... .. . 104 ... ... : ... .. . ... : ... .. . ... : ... .. . ...
ROW 07 : ... .. . ... ... ... : ... .. . ... ... ... : ... .. . ... : ... .. . ... : ... .. . ...
ROW 08 : A#3 00 . ... ... ... : D#4 00 . 100 ... ... : ... .. . ... : ... .. . ... : ... .. . ...
ROW 09 : ... .. . ... ... ... : ... .. . ... ... ... : ... .. . ... : ... .. . ... : ... .. . ...
ROW 0A : ... .. . 206 ... ... : ... .. . 104 ... ... : ... .. . ... : ... .. . ... : ... .. . ...
ROW 0B : ... .. . ... ... ... : ... .. . ... ... ... : ... .. . ... : ... .. . ... : ... .. . ...
ROW 0C : --- .. . 200 ... ... : F-4 00 . 100 ... ... : ... .. . ... : ... .. . ... : ... .. . ...
ROW 0D : ... .. . ... ... ... : ... .. . ... ... ... : ... .. . ... : ... .. . ... : ... .. . ...
ROW 0E : ... .. . ... ... ... : ... .. . 104 ... ... : ... .. . ... : ... .. . ... : ... .. . ...
ROW 0F : ... .. . ... ... ... : ... .. . ... ... ... : ... .. . ... : ... .. . ... : ... .. . ...
ROW 10 : G-3 00 . ... ... ... : G-4 00 . 100 ... ... : ... .. . ... : ... .. . ... : ... .. . ...
ROW 11 : ... .. . ... ... ... : ... .. . ... ... ... : ... .. . ... : ... .. . ... : ... .. . ...
ROW 12 : ... .. . 107 ... ... : ... .. . ... ... ... : ... .. . ... : ... .. . ... : ... .. . ...
ROW 13 : ... .. . ... ... ... : ... .. . ... ... ... : ... .. . ... : ... .. . ... : ... .. . ...
ROW 14 : G#3 00 . 100 ... ... : ... .. . ... ... ... : ... .. . ... : ... .. . ... : ... .. . ...
ROW 15 : ... .. . ... ... ... : ... .. . 107 ... ... : ... .. . ... : ... .. . ... : ... .. . ...
ROW 16 : ... .. . ... ... ... : ... .. . ... ... ... : ... .. . ... : ... .. . ... : ... .. . ...
ROW 17 : ... .. . ... ... ... : A-4 00 . 100 ... ... : ... .. . ... : ... .. . ... : ... .. . ...
ROW 18 : ... .. . 4FC ... ... : C-5 00 . ... ... ... : ... .. . ... : ... .. . ... : ... .. . ...
ROW 19 : ... .. . ... ... ... : ... .. . ... ... ... : ... .. . ... : ... .. . ... : ... .. . ...
ROW 1A : ... .. . ... ... ... : ... .. . ... ... ... : ... .. . ... : ... .. . ... : ... .. . ...
ROW 1B : --- .. . 400 ... ... : ... .. . ... ... ... : ... .. . ... : ... .. . ... : ... .. . ...
ROW 1C : F-3 00 . ... ... ... : A#4 00 . ... ... ... : ... .. . ... : ... .. . ... : ... .. . ...
ROW 1D : ... .. . 209 ... ... : ... .. . ... ... ... : ... .. . ... : ... .. . ... : ... .. . ...
ROW 1E : --- .. . 200 ... ... : ... .. . ... ... ... : ... .. . ... : ... .. . ... : ... .. . ...
ROW 1F : ... .. . ... ... ... : ... .. . ... ... ... : ... .. . ... : ... .. . ... : ... .. . ...
ROW 20 : F-4 00 . ... ... ... : G-4 00 . 475 ... ... : ... .. . ... : ... .. . ... : ... .. . ...
ROW 21 : ... .. . ... ... ... : ... .. . ... ... ... : ... .. . ... : ... .. . ... : ... .. . ...
ROW 22 : --- .. . ... ... ... : ... .. . ... ... ... : ... .. . ... : ... .. . ... : ... .. . ...
ROW 23 : ... .. . ... ... ... : ... .. . ... ... ... : ... .. . ... : ... .. . ... : ... .. . ...
ROW 24 : F-4 00 . ... ... ... : ... .. . 4FC ... ... : ... .. . ... : ... .. . ... : ... .. . ...
ROW 25 : ... .. . ... ... ... : ... .. . ... ... ... : ... .. . ... : ... .. . ... : ... .. . ...
ROW 26 : --- .. . ... ... ... : ... .. . ... ... ... : ... .. . ... : ... .. . ... : ... .. . ...
ROW 27 : ... .. . ... ... ... : ... .. . ... ... ... : ... .. . ... : ... .. . ... : ... .. . ...
ROW 28 : F-4 00 . ... ... ... : C-4 00 . 400 ... ... : ... .. . ... : ... .. . ... : ... .. . ...
ROW 29 : ... .. . ... ... ... : ... .. . ... ... ... : ... .. . ... : ... .. . ... : ... .. . ...
ROW 2A : --- .. . ... ... ... : ... .. . ... ... ... : ... .. . ... : ... .. . ... : ... .. . ...
ROW 2B : ... .. . ... ... ... : ... .. . ... ... ... : ... .. . ... : ... .. . ... : ... .. . ...
ROW 2C : F-4 00 . ... ... ... : ... .. . 0FC ... ... : ... .. . ... : ... .. . ... : ... .. . ...
ROW 2D : ... .. . ... ... ... : ... .. . ... ... ... : ... .. . ... : ... .. . ... : ... .. . ...
ROW 2E : --- .. . ... ... ... : ... .. . ... ... ... : ... .. . ... : ... .. . ... : ... .. . ...
ROW 2F : ... .. . ... ... ... : ... .. . 000 ... ... : ... .. . ... : ... .. . ... : ... .. . ...
ROW 30 : G-5 00 . ... ... ... : G-4 00 . ... ... ... : ... .. . ... : ... .. . ... : ... .. . ...
ROW 31 : ... .. . ... ... ... : F-4 00 . ... ... ... : ... .. . ... : ... .. . ... : ... .. . ...
ROW 32 : ... .. . ... ... ... : D#4 00 . ... ... ... : ... .. . ... : ... .. . ... : ... .. . ...
ROW 33 : ... .. . ... ... ... : D-4 00 . ... ... ... : ... .. . ... : ... .. . ... : ... .. . ...
ROW 34 : G#5 00 . ... ... ... : --- .. . ... ... ... : ... .. . ... : ... .. . ... : ... .. . ...
ROW 35 : ... .. . ... ... ... : F-4 00 . ... ... ... : ... .. . ... : ... .. . ... : ... .. . ...
ROW 36 : ... .. . ... ... ... : D#4 00 . ... ... ... : ... .. . ... : ... .. . ... : ... .. . ...
ROW 37 : ... .. . ... ... ... : D-4 00 . ... ... ... : ... .. . ... : ... .. . ... : ... .. . ...
ROW 38 : C-5 00 . ... ... ... : C-4 00 . ... ... ... : ... .. . ... : ... .. . ... : ... .. . ...
ROW 39 : ... .. . ... ... ... : --- .. . ... ... ... : ... .. . ... : ... .. . ... : ... .. . ...
ROW 3A : ... .. . ... ... ... : D#4 00 . ... ... ... : ... .. . ... : ... .. . ... : ... .. . ...
ROW 3B : ... .. . ... ... ... : D-4 00 . ... ... ... : ... .. . ... : ... .. . ... : ... .. . ...
ROW 3C : D#5 00 . ... ... ... : C-4 00 . ... ... ... : ... .. . ... : ... .. . ... : ... .. . ...
ROW 3D : ... .. . 206 ... ... : ... .. . ... ... ... : ... .. . ... : ... .. . ... : ... .. . ...
ROW 3E : ... .. . ... ... ... : --- .. . ... ... ... : ... .. . ... : ... .. . ... : ... .. . ...
ROW 3F : ... .. . 200 ... ... : ... .. . ... ... ... : ... .. . ... : ... .. . ... : ... .. . ...

PATTERN 0E
ROW 00 : G-3 00 A ... 477 ... : C-5 00 8 V00 ... ... : ... .. . ... : ... .. . ... : ... .. . ...
ROW 01 : ... .. . ... ... ... : ... .. . ... ... ... : ... .. . ... : ... .. . ... : ... .. . ...
ROW 02 : ... .. . ... ... ... : ... .. . ... ... ... : ... .. . ... : ... .. . ... : ... .. . ...
ROW 03 : ... .. . ... ... ... : ... .. . ... ... ... : ... .. . ... : ... .. . ... : ... .. . ...
ROW 04 : ... .. 0 ... ... ... : ... .. . ... ... ... : ... .. . ... : ... .. . ... : ... .. . ...
ROW 05 : ... .. . ... ... ... : ... .. . ... ... ... : ... .. . ... : ... .. . ... : ... .. . ...
ROW 06 : ... .. . ... ... ... : ... .. . ... ... ... : ... .. . ... : ... .. . ... : ... .. . ...
ROW 07 : ... .. . ... ... ... : ... .. . ... ... ... : ... .. . ... : ... .. . ... : ... .. . ...
ROW 08 : ... .. A ... ... ... : A#4 00 . ... ... ... : ... .. . ... : ... .. . ... : ... .. . ...
ROW 09 : ... .. . ... ... ... : ... .. . ... ... ... : ... .. . ... : ... .. . ... : ... .. . ...
ROW 0A : ... .. . ... ... ... : ... .. . ... ... ... : ... .. . ... : ... .. . ... : ... .. . ...
ROW 0B : ... .. . ... ... ... : ... .. . ... ... ... : ... .. . ... : ... .. . ... : ... .. . ...
ROW 0C : ... .. 0 ... ... ... : ... .. . ... ... ... : ... .. . ... : ... .. . ... : ... .. . ...
ROW 0D : ... .. . ... ... ... : ... .. . ... ... ... : ... .. . ... : ... .. . ... : ... .. . ...
ROW 0E : ... .. . ... ... ... : ... .. . ... ... ... : ... .. . ... : ... .. . ... : ... .. . ...
ROW 0F : ... .. . ... ... ... : ... .. . ... ... ... : ... .. . ... : ... .. . ... : ... .. . ...
ROW 10 : ... .. A ... ... ... : G-4 00 . ... ... ... : ... .. . ... : ... .. . ... : ... .. . ...
ROW 11 : ... .. . ... ... ... : ... .. . ... ... ... : ... .. . ... : ... .. . ... : ... .. . ...
ROW 12 : ... .. . ... ... ... : ... .. . ... ... ... : ... .. . ... : ... .. . ... : ... .. . ...
ROW 13 : ... .. . ... ... ... : ... .. . ... ... ... : ... .. . ... : ... .. . ... : ... .. . ...
ROW 14 : ... .. 0 ... ... ... : G#4 00 . ... ... ... : ... .. . ... : ... .. . ... : ... .. . ...
ROW 15 : ... .. . ... ... ... : ... .. . ... ... ... : ... .. . ... : ... .. . ... : ... .. . ...
ROW 16 : ... .. . ... ... ... : ... .. . ... ... ... : ... .. . ... : ... .. . ... : ... .. . ...
ROW 17 : ... .. . ... ... ... : ... .. . ... ... ... : ... .. . ... : ... .. . ... : ... .. . ...
ROW 18 : ... .. A ... ... ... : ... .. . ... ... ... : ... .. . ... : ... .. . ... : ... .. . ...
ROW 19 : ... .. . ... ... ... : ... .. . ... ... ... : ... .. . ... : ... .. . ... : ... .. . ...
ROW 1A : ... .. . ... ... ... : ... .. . ... ... ... : ... .. . ... : ... .. . ... : ... .. . ...
ROW 1B : ... .. . ... ... ... : ... .. . ... ... ... : ... .. . ... : ... .. . ... : ... .. . ...
ROW 1C : ... .. 0 ... ... ... : F-4 00 . ... ... ... : ... .. . ... : ... .. . ... : ... .. . ...
ROW 1D : ... .. . ... ... ... : ... .. . ... ... ... : ... .. . ... : ... .. . ... : ... .. . ...
ROW 1E : ... .. . ... ... ... : --- .. . ... ... ... : ... .. . ... : ... .. . ... : ... .. . ...
ROW 1F : ... .. . ... ... ... : ... .. . ... ... ... : ... .. . ... : ... .. . ... : ... .. . ...
ROW 20 : ... .. A ... ... ... : ... .. . ... ... ... : ... .. . ... : ... .. . ... : ... .. . ...
ROW 21 : ... .. . ... ... ... : ... .. . ... ... ... : ... .. . ... : ... .. . ... : ... .. . ...
ROW 22 : ... .. . ... ... ... : ... .. . ... ... ... : ... .. . ... : ... .. . ... : ... .. . ...
ROW 23 : ... .. . ... ... ... : ... .. . ... ... ... : ... .. . ... : ... .. . ... : ... .. . ...
ROW 24 : ... .. 0 ... ... ... : F-4 00 6 V01 ... ... : ... .. . ... : ... .. . ... : ... .. . ...
ROW 25 : ... .. . ... ... ... : ... .. . ... ... ... : ... .. . ... : ... .. . ... : ... .. . ...
ROW 26 : ... .. . ... ... ... : --- .. . ... ... ... : ... .. . ... : ... .. . ... : ... .. . ...
ROW 27 : ... .. . ... ... ... : ... .. . ... ... ... : ... .. . ... : ... .. . ... : ... .. . ...
ROW 28 : ... .. A ... ... ... : F-4 00 . ... ... ... : ... .. . ... : ... .. . ... : ... .. . ...
ROW 29 : ... .. . ... ... ... : ... .. . ... ... ... : ... .. . ... : ... .. . ... : ... .. . ...
ROW 2A : ... .. . ... ... ... : --- .. . ... ... ... : ... .. . ... : ... .. . ... : ... .. . ...
ROW 2B : ... .. . ... ... ... : ... .. . ... ... ... : ... .. . ... : ... .. . ... : ... .. . ...
ROW 2C : ... .. 0 ... ... ... : F-4 00 . ... ... ... : ... .. . ... : ... .. . ... : ... .. . ...
ROW 2D : ... .. . ... ... ... : ... .. . ... ... ... : ... .. . ... : ... .. . ... : ... .. . ...
ROW 2E : ... .. . ... ... ... : --- .. . ... ... ... : ... .. . ... : ... .. . ... : ... .. . ...
ROW 2F : ... .. . ... ... ... : ... .. . ... ... ... : ... .. . ... : ... .. . ... : ... .. . ...
ROW 30 : B-3 00 A ... ... ... : F-4 00 . ... ... ... : ... .. . ... : ... .. . ... : ... .. . ...
ROW 31 : A-3 00 . ... ... ... : ... .. . ... ... ... : ... .. . ... : ... .. . ... : ... .. . ...
ROW 32 : G-3 00 . ... ... ... : --- .. . ... ... ... : ... .. . ... : ... .. . ... : ... .. . ...
ROW 33 : F-3 00 . ... ... ... : ... .. . ... ... ... : ... .. . ... : ... .. . ... : ... .. . ...
ROW 34 : E-3 00 0 ... ... ... : G-5 00 . ... ... ... : ... .. . ... : ... .. . ... : ... .. . ...
ROW 35 : D-3 00 . ... ... ... : ... .. . ... ... ... : ... .. . ... : ... .. . ... : ... .. . ...
ROW 36 : C-3 00 . ... ... ... : --- .. . ... ... ... : ... .. . ... : ... .. . ... : ... .. . ...
ROW 37 : ... .. . ... ... ... : ... .. . ... ... ... : ... .. . ... : ... .. . ... : ... .. . ...
ROW 38 : ... .. A ... ... ... : G#5 00 . ... ... ... : ... .. . ... : ... .. . ... : ... .. . ...
ROW 39 : ... .. . ... ... ... : ... .. . ... ... ... : ... .. . ... : ... .. . ... : ... .. . ...
ROW 3A : ... .. . ... ... ... : --- .. . ... ... ... : ... .. . ... : ... .. . ... : ... .. . ...
ROW 3B : ... .. . ... ... ... : ... .. . ... ... ... : ... .. . ... : ... .. . ... : ... .. . ...
ROW 3C : ... .. 0 ... ... ... : C-5 00 . ... ... ... : ... .. . ... : ... .. . ... : ... .. . ...
ROW 3D : --- .. . ... ... ... : ... .. . ... ... ... : ... .. . ... : ... .. . ... : ... .. . ...
ROW 3E : ... .. . ... ... ... : --- .. . ... ... ... : ... .. . ... : ... .. . ... : ... .. . ...
ROW 3F : ... .. . ... ... ... : ... .. . ... ... ... : ... .. . ... : ... .. . ... : ... .. . ...

PATTERN 0F
ROW 00 : C-4 00 A V02 400 ... : C-4 00 8 V02 ... ... : ... .. . ... : ... .. . ... : ... .. . ...
ROW 01 : --- .. . ... ... ... : ... .. . ... ... ... : ... .. . ... : ... .. . ... : ... .. . ...
ROW 02 : G-3 00 . ... ... ... : ... .. . ... ... ... : ... .. . ... : ... .. . ... : ... .. . ...
ROW 03 : --- .. . ... ... ... : ... .. . ... ... ... : ... .. . ... : ... .. . ... : ... .. . ...
ROW 04 : G-3 00 . ... ... ... : ... .. . ... ... ... : ... .. . ... : ... .. . ... : ... .. . ...
ROW 05 : --- .. . ... ... ... : ... .. . ... ... ... : ... .. . ... : ... .. . ... : ... .. . ...
ROW 06 : ... .. . ... ... ... : --- .. . ... ... ... : ... .. . ... : ... .. . ... : ... .. . ...
ROW 07 : ... .. . ... ... ... : ... .. . ... ... ... : ... .. . ... : ... .. . ... : ... .. . ...
ROW 08 : G-3 00 . ... ... ... : C-4 00 . ... ... ... : ... .. . ... : ... .. . ... : ... .. . ...
ROW 09 : --- .. . ... ... ... : ... .. . ... ... ... : ... .. . ... : ... .. . ... : ... .. . ...
ROW 0A : ... .. . ... ... ... : ... .. . ... ... ... : ... .. . ... : ... .. . ... : ... .. . ...
ROW 0B : ... .. . ... ... ... : ... .. . ... ... ... : ... .. . ... : ... .. . ... : ... .. . ...
ROW 0C : F-3 00 . ... ... ... : D-4 00 . ... ... ... : ... .. . ... : ... .. . ... : ... .. . ...
ROW 0D : --- .. . ... ... ... : ... .. . ... ... ... : ... .. . ... : ... .. . ... : ... .. . ...
ROW 0E : ... .. . ... ... ... : ... .. . ... ... ... : ... .. . ... : ... .. . ... : ... .. . ...
ROW 0F : ... .. . ... ... ... : ... .. . ... ... ... : ... .. . ... : ... .. . ... : ... .. . ...
ROW 10 : E-3 00 . ... ... ... : ... .. . ... ... ... : ... .. . ... : ... .. . ... : ... .. . ...
ROW 11 : --- .. . ... ... ... : ... .. . ... ... ... : ... .. . ... : ... .. . ... : ... .. . ...
ROW 12 : F-3 00 . ... ... ... : --- .. . ... ... ... : ... .. . ... : ... .. . ... : ... .. . ...
ROW 13 : --- .. . ... ... ... : ... .. . ... ... ... : ... .. . ... : ... .. . ... : ... .. . ...
ROW 14 : G-3 00 . ... ... ... : D-4 00 . ... ... ... : ... .. . ... : ... .. . ... : ... .. . ...
ROW 15 : --- .. . ... ... ... : ... .. . ... ... ... : ... .. . ... : ... .. . ... : ... .. . ...
ROW 16 : ... .. . ... ... ... : ... .. . ... ... ... : ... .. . ... : ... .. . ... : ... .. . ...
ROW 17 : ... .. . ... ... ... : ... .. . ... ... ... : ... .. . ... : ... .. . ... : ... .. . ...
ROW 18 : G-3 00 . ... ... ... : ... .. . ... ... ... : ... .. . ... : ... .. . ... : ... .. . ...
ROW 19 : --- .. . ... ... ... : ... .. . ... ... ... : ... .. . ... : ... .. . ... : ... .. . ...
ROW 1A : ... .. . ... ... ... : --- .. . ... ... ... : ... .. . ... : ... .. . ... : ... .. . ...
ROW 1B : ... .. . ... ... ... : ... .. . ... ... ... : ... .. . ... : ... .. . ... : ... .. . ...
ROW 1C : ... .. . ... ... ... : D-4 00 . ... ... ... : ... .. . ... : ... .. . ... : ... .. . ...
ROW 1D : ... .. . ... ... ... : ... .. . ... ... ... : ... .. . ... : ... .. . ... : ... .. . ...
ROW 1E : ... .. . ... ... ... : ... .. . ... ... ... : ... .. . ... : ... .. . ... : ... .. . ...
ROW 1F : ... .. . ... ... ... : ... .. . ... ... ... : ... .. . ... : ... .. . ... : ... .. . ...
ROW 20 : C-4 00 A V02 ... ... : ... .. . ... ... ... : ... .. . ... : ... .. . ... : ... .. . ...
ROW 21 : --- .. . ... ... ... : ... .. . ... ... ... : ... .. . ... : ... .. . ... : ... .. . ...
ROW 22 : G-3 00 . ... ... ... : ... .. . ... ... ... : ... .. . ... : ... .. . ... : ... .. . ...
ROW 23 : --- .. . ... ... ... : ... .. . ... ... ... : ... .. . ... : ... .. . ... : ... .. . ...
ROW 24 : G-3 00 . ... ... ... : C-4 00 . ... ... ... : ... .. . ... : ... .. . ... : ... .. . ...
ROW 25 : --- .. . ... ... ... : ... .. . ... ... ... : ... .. . ... : ... .. . ... : ... .. . ...
ROW 26 : ... .. . ... ... ... : ... .. . ... ... ... : ... .. . ... : ... .. . ... : ... .. . ...
ROW 27 : ... .. . ... ... ... : ... .. . ... ... ... : ... .. . ... : ... .. . ... : ... .. . ...
ROW 28 : G-3 00 . ... ... ... : D-4 00 . ... ... ... : ... .. . ... : ... .. . ... : ... .. . ...
ROW 29 : --- .. . ... ... ... : ... .. . ... ... ... : ... .. . ... : ... .. . ... : ... .. . ...
ROW 2A : ... .. . ... ... ... : ... .. . ... ... ... : ... .. . ... : ... .. . ... : ... .. . ...
ROW 2B : ... .. . ... ... ... : ... .. . ... ... ... : ... .. . ... : ... .. . ... : ... .. . ...
ROW 2C : F-3 00 . ... ... ... : C-4 00 . ... ... ... : ... .. . ... : ... .. . ... : ... .. . ...
ROW 2D : --- .. . ... ... ... : ... .. . ... ... ... : ... .. . ... : ... .. . ... : ... .. . ...
ROW 2E : ... .. . ... ... ... : ... .. . ... ... ... : ... .. . ... : ... .. . ... : ... .. . ...
ROW 2F : ... .. . ... ... ... : ... .. . ... ... ... : ... .. . ... : ... .. . ... : ... .. . ...
ROW 30 : E-3 00 . ... ... ... : E-4 00 . ... ... ... : ... .. . ... : ... .. . ... : ... .. . ...
ROW 31 : --- .. . ... ... ... : ... .. . ... ... ... : ... .. . ... : ... .. . ... : ... .. . ...
ROW 32 : F-3 00 . ... ... ... : E-4 00 . ... ... ... : ... .. . ... : ... .. . ... : ... .. . ...
ROW 33 : --- .. . ... ... ... : --- .. . ... ... ... : ... .. . ... : ... .. . ... : ... .. . ...
ROW 34 : G-3 00 . ... ... ... : F-4 00 . ... ... ... : ... .. . ... : ... .. . ... : ... .. . ...
ROW 35 : --- .. . ... ... ... : --- .. . ... ... ... : ... .. . ... : ... .. . ... : ... .. . ...
ROW 36 : ... .. . ... ... ... : G-4 00 . ... ... ... : ... .. . ... : ... .. . ... : ... .. . ...
ROW 37 : ... .. . ... ... ... : --- .. . ... ... ... : ... .. . ... : ... .. . ... : ... .. . ...
ROW 38 : G-3 00 . ... ... ... : G-4 00 . ... ... ... : ... .. . ... : ... .. . ... : ... .. . ...
ROW 39 : --- .. . ... ... ... : --- .. . ... ... ... : ... .. . ... : ... .. . ... : ... .. . ...
ROW 3A : ... .. . ... ... ... : C-4 00 . ... ... ... : ... .. . ... : ... .. . ... : ... .. . ...
ROW 3B : ... .. . ... ... ... : --- .. . ... ... ... : ... .. . ... : ... .. . ... : ... .. . ...
ROW 3C : ... .. . ... ... ... : G-4 00 . ... ... ... : ... .. . ... : ... .. . ... : ... .. . ...
ROW 3D : ... .. . ... ... ... : --- .. . ... ... ... : ... .. . ... : ... .. . ... : ... .. . ...
ROW 3E : ... .. . ... ... ... : ... .. . ... ... ... : ... .. . ... : ... .. . ... : ... .. . ...
ROW 3F : ... .. . ... ... ... : ... .. . ... ... ... : ... .. . ... : ... .. . ... : ... .. . ...

PATTERN 10
ROW 00 : ... .. . ... ... ... : C-5 00 8 V00 400 ... : ... .. . ... : ... .. . ... : ... .. . ...
ROW 01 : ... .. . ... ... ... : ... .. . ... ... ... : ... .. . ... : ... .. . ... : ... .. . ...
ROW 02 : ... .. . ... ... ... : --- 00 . ... ... ... : ... .. . ... : ... .. . ... : ... .. . ...
ROW 03 : ... .. . ... ... ... : ... .. . ... ... ... : ... .. . ... : ... .. . ... : ... .. . ...
ROW 04 : ... .. . ... ... ... : G-4 00 . ... ... ... : ... .. . ... : ... .. . ... : ... .. . ...
ROW 05 : ... .. . ... ... ... : ... .. . ... ... ... : ... .. . ... : ... .. . ... : ... .. . ...
ROW 06 : ... .. . ... ... ... : C-5 00 . ... ... ... : ... .. . ... : ... .. . ... : ... .. . ...
ROW 07 : ... .. . ... ... ... : ... .. . ... ... ... : ... .. . ... : ... .. . ... : ... .. . ...
ROW 08 : ... .. . ... ... ... : --- .. . ... ... ... : ... .. . ... : ... .. . ... : ... .. . ...
ROW 09 : ... .. . ... ... ... : ... .. . ... ... ... : ... .. . ... : ... .. . ... : ... .. . ...
ROW 0A : ... .. . ... ... ... : G-4 00 . ... ... ... : ... .. . ... : ... .. . ... : ... .. . ...
ROW 0B : ... .. . ... ... ... : ... .. . ... ... ... : ... .. . ... : ... .. . ... : ... .. . ...
ROW 0C : ... .. . ... ... ... : C-5 00 . ... ... ... : ... .. . ... : ... .. . ... : ... .. . ...
ROW 0D : ... .. . ... ... ... : ... .. . ... ... ... : ... .. . ... : ... .. . ... : ... .. . ...
ROW 0E : ... .. . ... ... ... : --- .. . ... ... ... : ... .. . ... : ... .. . ... : ... .. . ...
ROW 0F : ... .. . ... ... ... : ... .. . ... ... ... : ... .. . ... : ... .. . ... : ... .. . ...
ROW 10 : ... .. . ... ... ... : D-5 00 . ... ... ... : ... .. . ... : ... .. . ... : ... .. . ...
ROW 11 : ... .. . ... ... ... : ... .. . ... ... ... : ... .. . ... : ... .. . ... : ... .. . ...
ROW 12 : ... .. . ... ... ... : --- .. . ... ... ... : ... .. . ... : ... .. . ... : ... .. . ...
ROW 13 : ... .. . ... ... ... : ... .. . ... ... ... : ... .. . ... : ... .. . ... : ... .. . ...
ROW 14 : ... .. . ... ... ... : G-5 00 . ... ... ... : ... .. . ... : ... .. . ... : ... .. . ...
ROW 15 : ... .. . ... ... ... : ... .. . ... ... ... : ... .. . ... : ... .. . ... : ... .. . ...
ROW 16 : ... .. . ... ... ... : --- .. . ... ... ... : ... .. . ... : ... .. . ... : ... .. . ...
ROW 17 : ... .. . ... ... ... : ... .. . ... ... ... : ... .. . ... : ... .. . ... : ... .. . ...
ROW 18 : ... .. . ... ... ... : D-5 00 . ... ... ... : ... .. . ... : ... .. . ... : ... .. . ...
ROW 19 : ... .. . ... ... ... : ... .. . ... ... ... : ... .. . ... : ... .. . ... : ... .. . ...
ROW 1A : ... .. . ... ... ... : --- .. . ... ... ... : ... .. . ... : ... .. . ... : ... .. . ...
ROW 1B : ... .. . ... ... ... : ... .. . ... ... ... : ... .. . ... : ... .. . ... : ... .. . ...
ROW 1C : ... .. . ... ... ... : ... .. . ... ... ... : ... .. . ... : ... .. . ... : ... .. . ...
ROW 1D : ... .. . ... ... ... : ... .. . ... ... ... : ... .. . ... : ... .. . ... : ... .. . ...
ROW 1E : ... .. . ... ... ... : ... .. . ... ... ... : ... .. . ... : ... .. . ... : ... .. . ...
ROW 1F : ... .. . ... ... ... : ... .. . ... ... ... : ... .. . ... : ... .. . ... : ... .. . ...
ROW 20 : ... .. . ... ... ... : D-5 00 . A01 ... ... : ... .. . ... : ... .. . ... : ... .. . ...
ROW 21 : ... .. . ... ... ... : ... .. . ... ... ... : ... .. . ... : ... .. . ... : ... .. . ...
ROW 22 : ... .. . ... ... ... : --- .. . ... ... ... : ... .. . ... : ... .. . ... : ... .. . ...
ROW 23 : ... .. . ... ... ... : ... .. . ... ... ... : ... .. . ... : ... .. . ... : ... .. . ...
ROW 24 : ... .. . ... ... ... : ... .. . ... ... ... : ... .. . ... : ... .. . ... : ... .. . ...
ROW 25 : ... .. . ... ... ... : ... .. . ... ... ... : ... .. . ... : ... .. . ... : ... .. . ...
ROW 26 : ... .. . ... ... ... : ... .. . ... ... ... : ... .. . ... : ... .. . ... : ... .. . ...
ROW 27 : ... .. . ... ... ... : ... .. . ... ... ... : ... .. . ... : ... .. . ... : ... .. . ...
ROW 28 : ... .. . ... ... ... : D-5 00 . ... ... ... : ... .. . ... : ... .. . ... : ... .. . ...
ROW 29 : ... .. . ... ... ... : ... .. . ... ... ... : ... .. . ... : ... .. . ... : ... .. . ...
ROW 2A : ... .. . ... ... ... : --- .. . ... ... ... : ... .. . ... : ... .. . ... : ... .. . ...
ROW 2B : ... .. . ... ... ... : ... .. . ... ... ... : ... .. . ... : ... .. . ... : ... .. . ...
ROW 2C : ... .. . ... ... ... : ... .. . ... ... ... : ... .. . ... : ... .. . ... : ... .. . ...
ROW 2D : ... .. . ... ... ... : ... .. . ... ... ... : ... .. . ... : ... .. . ... : ... .. . ...
ROW 2E : ... .. . ... ... ... : ... .. . ... ... ... : ... .. . ... : ... .. . ... : ... .. . ...
ROW 2F : ... .. . ... ... ... : ... .. . ... ... ... : ... .. . ... : ... .. . ... : ... .. . ...
ROW 30 : ... .. . ... ... ... : D-5 00 . ... ... ... : ... .. . ... : ... .. . ... : ... .. . ...
ROW 31 : ... .. . ... ... ... : ... .. . ... ... ... : ... .. . ... : ... .. . ... : ... .. . ...
ROW 32 : ... .. . ... ... ... : --- .. . ... ... ... : ... .. . ... : ... .. . ... : ... .. . ...
ROW 33 : ... .. . ... ... ... : ... .. . ... ... ... : ... .. . ... : ... .. . ... : ... .. . ...
ROW 34 : ... .. . ... ... ... : ... .. . ... ... ... : ... .. . ... : ... .. . ... : ... .. . ...
ROW 35 : ... .. . ... ... ... : ... .. . ... ... ... : ... .. . ... : ... .. . ... : ... .. . ...
ROW 36 : ... .. . ... ... ... : ... .. . ... ... ... : ... .. . ... : ... .. . ... : ... .. . ...
ROW 37 : ... .. . ... ... ... : ... .. . ... ... ... : ... .. . ... : ... .. . ... : ... .. . ...
ROW 38 : ... .. . ... ... ... : D-5 00 . A00 ... ... : ... .. . ... : ... .. . ... : ... .. . ...
ROW 39 : ... .. . ... ... ... : ... .. . ... ... ... : ... .. . ... : ... .. . ... : ... .. . ...
ROW 3A : ... .. . ... ... ... : --- .. . ... ... ... : ... .. . ... : ... .. . ... : ... .. . ...
ROW 3B : ... .. . ... ... ... : ... .. . ... ... ... : ... .. . ... : ... .. . ... : ... .. . ...
ROW 3C : ... .. . ... ... ... : ... .. . ... ... ... : ... .. . ... : ... .. . ... : ... .. . ...
ROW 3D : ... .. . ... ... ... : ... .. . ... ... ... : ... .. . ... : ... .. . ... : ... .. . ...
ROW 3E : ... .. . ... ... ... : ... .. . ... ... ... : ... .. . ... : ... .. . ... : ... .. . ...
ROW 3F : ... .. . ... ... ... : ... .. . ... ... ... : ... .. . ... : ... .. . ... : ... .. . ...

# End of export
